<svg xmlns="http://www.w3.org/2000/svg" xmlns:xlink="http://www.w3.org/1999/xlink" width="1920" height="5000" viewBox="0 0 1920 5000">
  <defs>
    <clipPath id="clip-path">
      <rect width="44.817" height="333.883" fill="none"/>
    </clipPath>
    <clipPath id="clip-path-2">
      <rect width="43.642" height="51.767" fill="none"/>
    </clipPath>
    <clipPath id="clip-path-7">
      <rect width="548.005" height="328" fill="none"/>
    </clipPath>
    <clipPath id="clip-path-8">
      <rect width="1700.007" height="225" fill="none"/>
    </clipPath>
    <clipPath id="clip-path-9">
      <rect width="1725" height="478" fill="none"/>
    </clipPath>
    <clipPath id="clip-path-10">
      <rect width="851.5" height="324" fill="none"/>
    </clipPath>
    <clipPath id="clip-path-12">
      <rect width="190" height="85" fill="none"/>
    </clipPath>
    <clipPath id="clip-path-13">
      <rect width="246" height="67" fill="none"/>
    </clipPath>
    <clipPath id="clip-path-14">
      <rect width="831" height="481" fill="none"/>
    </clipPath>
    <clipPath id="clip-path-15">
      <rect width="697" height="843" fill="none"/>
    </clipPath>
    <clipPath id="clip-Chapter_Page">
      <rect width="1920" height="5000"/>
    </clipPath>
  </defs>
  <g id="Chapter_Page" data-name="Chapter Page" clip-path="url(#clip-Chapter_Page)">
    <rect width="1920" height="5000" fill="#fff"/>
    <g id="Ellipse_1" data-name="Ellipse 1" transform="translate(72 57)" fill="#fff" stroke="#000" stroke-width="1">
      <ellipse cx="44.5" cy="50" rx="44.5" ry="50" stroke="none"/>
      <ellipse cx="44.5" cy="50" rx="44" ry="49.5" fill="none"/>
    </g>
    <text id="L" transform="translate(105 70)" fill="#707070" stroke="#000" stroke-width="1" font-size="45" font-family="SegoeUI, Segoe UI"><tspan x="0" y="49">L</tspan></text>
    <g id="Path_16" data-name="Path 16" transform="translate(776 57)" fill="#fff">
      <path d="M 965.5000610351563 99.5 L 247.1723327636719 99.5 L 158.7673950195313 99.5 L 0.5000669956207275 99.5 L 0.5000669956207275 0.5 L 965.5000610351563 0.5 L 965.5000610351563 99.5 Z" stroke="none"/>
      <path d="M 0.99993896484375 1 L 0.99993896484375 99 L 158.7672729492188 99 L 247.17236328125 99 L 964.9999389648438 99 L 964.9999389648438 1 L 164.48046875 1 L 0.99993896484375 1 M -6.103515625e-05 0 L 164.48046875 0 L -6.103515625e-05 0 L 965.9999389648438 0 L 965.9999389648438 100 C 965.9999389648438 100 515.8748779296875 100 247.17236328125 100 C 214.717529296875 100 184.8512573242188 100 158.7672729492188 100 C 15.465087890625 100 -13.6766357421875 100 -13.6766357421875 100 L -6.103515625e-05 100 L -6.103515625e-05 0 Z" stroke="none" fill="#707070"/>
    </g>
    <line id="Line_21" data-name="Line 21" y2="100" transform="translate(1285.5 57.5)" fill="none" stroke="#707070" stroke-width="1"/>
    <line id="Line_23" data-name="Line 23" y2="103" transform="translate(1022.5 57.5)" fill="none" stroke="#707070" stroke-width="1"/>
    <line id="Line_24" data-name="Line 24" x2="2" y2="103" transform="translate(1530.5 84.5)" fill="none" stroke="#707070" stroke-width="1"/>
    <line id="Line_25" data-name="Line 25" y1="5" x2="1920" transform="translate(0.5 235.5)" fill="none" stroke="#000" stroke-width="1"/>
    <text id="Topic_I" data-name="Topic I" transform="translate(72.5 769.5)" fill="#707070" stroke="#000" stroke-width="1" font-size="45" font-family="SegoeUI, Segoe UI"><tspan x="0" y="49">Topic I</tspan></text>
    <line id="Line_147" data-name="Line 147" x2="1670" y2="9" transform="translate(72.5 1171)" fill="none" stroke="#707070" stroke-width="1"/>
    <line id="Line_148" data-name="Line 148" x2="1670" y2="3" transform="translate(72.5 1225)" fill="none" stroke="#707070" stroke-width="1"/>
    <line id="Line_149" data-name="Line 149" x2="1670" y2="3" transform="translate(72.5 1283)" fill="none" stroke="#707070" stroke-width="1"/>
    <line id="Line_150" data-name="Line 150" x2="1670" y2="5" transform="translate(72.5 1338)" fill="none" stroke="#707070" stroke-width="1"/>
    <line id="Line_151" data-name="Line 151" x2="1670" y2="11" transform="translate(72.5 1406)" fill="none" stroke="#707070" stroke-width="1"/>
    <line id="Line_152" data-name="Line 152" y1="3" x2="714" transform="translate(72.5 1464)" fill="none" stroke="#707070" stroke-width="1"/>
    <line id="Line_158" data-name="Line 158" x2="1018" transform="translate(72.5 1122)" fill="none" stroke="#707070" stroke-width="1"/>
    <line id="Line_159" data-name="Line 159" x2="1018" y2="3" transform="translate(72.5 1067)" fill="none" stroke="#707070" stroke-width="1"/>
    <line id="Line_160" data-name="Line 160" x2="1018" y2="6" transform="translate(72.5 1006)" fill="none" stroke="#707070" stroke-width="1"/>
    <line id="Line_161" data-name="Line 161" x2="1018" y2="3" transform="translate(72.5 964)" fill="none" stroke="#707070" stroke-width="1"/>
    <line id="Line_162" data-name="Line 162" x2="1018" y2="5" transform="translate(72.5 917)" fill="none" stroke="#707070" stroke-width="1"/>
    <line id="Line_163" data-name="Line 163" y1="2" x2="1018" transform="translate(72.5 870)" fill="none" stroke="#707070" stroke-width="1"/>
    <g id="Rectangle_53" data-name="Rectangle 53" transform="translate(1151 867)" fill="#fff" stroke="#707070" stroke-width="1">
      <rect width="591" height="273" stroke="none"/>
      <rect x="0.5" y="0.5" width="590" height="272" fill="none"/>
    </g>
    <line id="Line_164" data-name="Line 164" x2="579" y2="274" transform="translate(1163.5 866.5)" fill="none" stroke="#707070" stroke-width="1"/>
    <line id="Line_165" data-name="Line 165" x1="591" y2="272" transform="translate(1151.5 868.5)" fill="none" stroke="#707070" stroke-width="1"/>
    <text id="Chapter_Objectives_" data-name="Chapter Objectives " transform="translate(72.5 326.5)" fill="#707070" stroke="#000" stroke-width="1" font-size="45" font-family="SegoeUI, Segoe UI"><tspan x="0" y="49">Chapter Objectives </tspan></text>
    <g id="Repeat_Grid_2" data-name="Repeat Grid 2" transform="translate(72.184 415)" clip-path="url(#clip-path)">
      <g transform="translate(-72.183 -415)">
        <g id="Rectangle_55" data-name="Rectangle 55" transform="translate(73 415)" fill="#fff" stroke="#707070" stroke-width="1">
          <rect width="44" height="36" stroke="none"/>
          <rect x="0.5" y="0.5" width="43" height="35" fill="none"/>
        </g>
        <line id="Line_166" data-name="Line 166" x2="44" y2="36" transform="translate(72.5 415.5)" fill="none" stroke="#707070" stroke-width="1"/>
        <g id="Repeat_Grid_1" data-name="Repeat Grid 1" transform="translate(73.179 415.117)" clip-path="url(#clip-path-2)">
          <g transform="translate(-73.179 -415.117)">
            <line id="Line_167" data-name="Line 167" x1="43" y2="36" transform="translate(73.5 415.5)" fill="none" stroke="#707070" stroke-width="1"/>
          </g>
        </g>
      </g>
      <g transform="translate(-72.183 -343)">
        <g id="Rectangle_55-2" data-name="Rectangle 55" transform="translate(73 415)" fill="#fff" stroke="#707070" stroke-width="1">
          <rect width="44" height="36" stroke="none"/>
          <rect x="0.5" y="0.5" width="43" height="35" fill="none"/>
        </g>
        <line id="Line_166-2" data-name="Line 166" x2="44" y2="36" transform="translate(72.5 415.5)" fill="none" stroke="#707070" stroke-width="1"/>
        <g id="Repeat_Grid_1-2" data-name="Repeat Grid 1" transform="translate(73.179 415.117)" clip-path="url(#clip-path-2)">
          <g transform="translate(-73.179 -415.117)">
            <line id="Line_167-2" data-name="Line 167" x1="43" y2="36" transform="translate(73.5 415.5)" fill="none" stroke="#707070" stroke-width="1"/>
          </g>
        </g>
      </g>
      <g transform="translate(-72.183 -271)">
        <g id="Rectangle_55-3" data-name="Rectangle 55" transform="translate(73 415)" fill="#fff" stroke="#707070" stroke-width="1">
          <rect width="44" height="36" stroke="none"/>
          <rect x="0.5" y="0.5" width="43" height="35" fill="none"/>
        </g>
        <line id="Line_166-3" data-name="Line 166" x2="44" y2="36" transform="translate(72.5 415.5)" fill="none" stroke="#707070" stroke-width="1"/>
        <g id="Repeat_Grid_1-3" data-name="Repeat Grid 1" transform="translate(73.179 415.117)" clip-path="url(#clip-path-2)">
          <g transform="translate(-73.179 -415.117)">
            <line id="Line_167-3" data-name="Line 167" x1="43" y2="36" transform="translate(73.5 415.5)" fill="none" stroke="#707070" stroke-width="1"/>
          </g>
        </g>
      </g>
      <g transform="translate(-72.183 -199)">
        <g id="Rectangle_55-4" data-name="Rectangle 55" transform="translate(73 415)" fill="#fff" stroke="#707070" stroke-width="1">
          <rect width="44" height="36" stroke="none"/>
          <rect x="0.5" y="0.5" width="43" height="35" fill="none"/>
        </g>
        <line id="Line_166-4" data-name="Line 166" x2="44" y2="36" transform="translate(72.5 415.5)" fill="none" stroke="#707070" stroke-width="1"/>
        <g id="Repeat_Grid_1-4" data-name="Repeat Grid 1" transform="translate(73.179 415.117)" clip-path="url(#clip-path-2)">
          <g transform="translate(-73.179 -415.117)">
            <line id="Line_167-4" data-name="Line 167" x1="43" y2="36" transform="translate(73.5 415.5)" fill="none" stroke="#707070" stroke-width="1"/>
          </g>
        </g>
      </g>
      <g transform="translate(-72.183 -127)">
        <g id="Rectangle_55-5" data-name="Rectangle 55" transform="translate(73 415)" fill="#fff" stroke="#707070" stroke-width="1">
          <rect width="44" height="36" stroke="none"/>
          <rect x="0.5" y="0.5" width="43" height="35" fill="none"/>
        </g>
        <line id="Line_166-5" data-name="Line 166" x2="44" y2="36" transform="translate(72.5 415.5)" fill="none" stroke="#707070" stroke-width="1"/>
        <g id="Repeat_Grid_1-5" data-name="Repeat Grid 1" transform="translate(73.179 415.117)" clip-path="url(#clip-path-2)">
          <g transform="translate(-73.179 -415.117)">
            <line id="Line_167-5" data-name="Line 167" x1="43" y2="36" transform="translate(73.5 415.5)" fill="none" stroke="#707070" stroke-width="1"/>
          </g>
        </g>
      </g>
    </g>
    <g id="Repeat_Grid_3" data-name="Repeat Grid 3" transform="translate(125.497 431)" clip-path="url(#clip-path-7)">
      <g transform="translate(-125.497 -431)">
        <line id="Line_168" data-name="Line 168" y1="3" x2="548" transform="translate(125.5 431.5)" fill="none" stroke="#707070" stroke-width="1"/>
      </g>
      <g transform="translate(-125.497 -367)">
        <line id="Line_168-2" data-name="Line 168" y1="3" x2="548" transform="translate(125.5 431.5)" fill="none" stroke="#707070" stroke-width="1"/>
      </g>
      <g transform="translate(-125.497 -303)">
        <line id="Line_168-3" data-name="Line 168" y1="3" x2="548" transform="translate(125.5 431.5)" fill="none" stroke="#707070" stroke-width="1"/>
      </g>
      <g transform="translate(-125.497 -239)">
        <line id="Line_168-4" data-name="Line 168" y1="3" x2="548" transform="translate(125.5 431.5)" fill="none" stroke="#707070" stroke-width="1"/>
      </g>
      <g transform="translate(-125.497 -175)">
        <line id="Line_168-5" data-name="Line 168" y1="3" x2="548" transform="translate(125.5 431.5)" fill="none" stroke="#707070" stroke-width="1"/>
      </g>
      <g transform="translate(-125.497 -111)">
        <line id="Line_168-6" data-name="Line 168" y1="3" x2="548" transform="translate(125.5 431.5)" fill="none" stroke="#707070" stroke-width="1"/>
      </g>
    </g>
    <g id="video-player" transform="translate(-942.633 1289)">
      <g id="square" transform="translate(1108.966 229.847)">
        <rect id="Rectangle_16" data-name="Rectangle 16" width="752.068" height="1511.696" rx="18.264" transform="translate(0 752.068) rotate(-90)" fill="#e8eff7"/>
      </g>
      <g id="play-circle-icon" transform="translate(1855.361 588.256)">
        <path id="play-circle-icon-2" data-name="play-circle-icon" d="M108.894,48a60.894,60.894,0,1,0,60.894,60.894A60.885,60.885,0,0,0,108.894,48Zm24.533,62.036-40.167,24.3a1.3,1.3,0,0,1-1.961-1.142v-48.6a1.3,1.3,0,0,1,1.961-1.142l40.167,24.3A1.342,1.342,0,0,1,133.427,110.036Z" transform="translate(-48 -48)" fill="#186aa5"/>
        <path id="play-icon" d="M128,97.392v50.367a1.322,1.322,0,0,0,1.982,1.2l40.736-25.184a1.411,1.411,0,0,0,0-2.374L129.982,96.213A1.31,1.31,0,0,0,128,97.392Z" transform="translate(-85.128 -61.554)" fill="#e8eff7"/>
      </g>
      <g id="seekbar" transform="translate(1208 971.256)">
        <path id="ios-play" d="M128,96.559v19.858a.521.521,0,0,0,.781.471l16.061-9.929a.556.556,0,0,0,0-.936l-16.061-9.929A.516.516,0,0,0,128,96.559Z" transform="translate(-128 -96.017)" fill="#186aa5"/>
        <g id="progress-bar" transform="translate(32 4)">
          <rect id="Rectangle_22" data-name="Rectangle 22" width="1363.74" height="11" rx="2" fill="#fff"/>
          <rect id="Rectangle_23" data-name="Rectangle 23" width="225" height="11" rx="2" fill="#186aa5"/>
        </g>
      </g>
    </g>
    <g id="Repeat_Grid_4" data-name="Repeat Grid 4" transform="translate(72.497 2363)" clip-path="url(#clip-path-8)">
      <g transform="translate(-72.497 -2404)">
        <line id="Line_169" data-name="Line 169" y1="11" x2="1700" transform="translate(72.5 2404.5)" fill="none" stroke="#707070" stroke-width="1"/>
      </g>
      <g transform="translate(-72.497 -2361)">
        <line id="Line_169-2" data-name="Line 169" y1="11" x2="1700" transform="translate(72.5 2404.5)" fill="none" stroke="#707070" stroke-width="1"/>
      </g>
      <g transform="translate(-72.497 -2318)">
        <line id="Line_169-3" data-name="Line 169" y1="11" x2="1700" transform="translate(72.5 2404.5)" fill="none" stroke="#707070" stroke-width="1"/>
      </g>
      <g transform="translate(-72.497 -2275)">
        <line id="Line_169-4" data-name="Line 169" y1="11" x2="1700" transform="translate(72.5 2404.5)" fill="none" stroke="#707070" stroke-width="1"/>
      </g>
      <g transform="translate(-72.497 -2232)">
        <line id="Line_169-5" data-name="Line 169" y1="11" x2="1700" transform="translate(72.5 2404.5)" fill="none" stroke="#707070" stroke-width="1"/>
      </g>
      <g transform="translate(-72.497 -2189)">
        <line id="Line_169-6" data-name="Line 169" y1="11" x2="1700" transform="translate(72.5 2404.5)" fill="none" stroke="#707070" stroke-width="1"/>
      </g>
    </g>
    <line id="Line_171" data-name="Line 171" y1="2" x2="850" transform="translate(72.5 2633.5)" fill="none" stroke="#707070" stroke-width="1"/>
    <g id="Rectangle_57" data-name="Rectangle 57" transform="translate(72 2744)" fill="#fff" stroke="#707070" stroke-width="1">
      <rect width="902" height="126" stroke="none"/>
      <rect x="0.5" y="0.5" width="901" height="125" fill="none"/>
    </g>
    <line id="Line_174" data-name="Line 174" y1="108" x2="306" transform="translate(1027.5 2651.5)" fill="none" stroke="#707070" stroke-width="1"/>
    <line id="Line_175" data-name="Line 175" x1="12" y2="54" transform="translate(994.5 2709.5)" fill="none" stroke="#707070" stroke-width="1"/>
    <line id="Line_176" data-name="Line 176" x2="56" y2="23" transform="translate(994.5 2773.5)" fill="none" stroke="#707070" stroke-width="1"/>
    <text id="Audio" transform="translate(1370.5 2656.5)" fill="#707070" stroke="#000" stroke-width="1" font-size="45" font-family="SegoeUI, Segoe UI"><tspan x="0" y="49">Audio</tspan></text>
    <text id="Quiz_" data-name="Quiz
" transform="translate(73.5 3958.5)" fill="#707070" stroke="#000" stroke-width="1" font-size="45" font-family="SegoeUI, Segoe UI"><tspan x="0" y="49">Quiz</tspan></text>
    <g id="Repeat_Grid_6" data-name="Repeat Grid 6" transform="translate(74 4055)" clip-path="url(#clip-path-9)">
      <g transform="translate(-72 -3140)">
        <g id="Rectangle_58" data-name="Rectangle 58" transform="translate(72 3140)" fill="#7b7676" stroke="#707070" stroke-width="1">
          <rect width="1725" height="17" stroke="none"/>
          <rect x="0.5" y="0.5" width="1724" height="16" fill="none"/>
        </g>
        <g id="Rectangle_59" data-name="Rectangle 59" transform="translate(72 3199)" fill="#7b7676" stroke="#707070" stroke-width="1">
          <rect width="561" height="15" stroke="none"/>
          <rect x="0.5" y="0.5" width="560" height="14" fill="none"/>
        </g>
        <g id="Repeat_Grid_5" data-name="Repeat Grid 5" transform="translate(171 3273)" clip-path="url(#clip-path-10)">
          <g transform="translate(-171 -3273)">
            <g id="Ellipse_14" data-name="Ellipse 14" transform="translate(171 3273)" fill="#fff" stroke="#707070" stroke-width="1">
              <ellipse cx="34.5" cy="32" rx="34.5" ry="32" stroke="none"/>
              <ellipse cx="34.5" cy="32" rx="34" ry="31.5" fill="none"/>
            </g>
            <g id="Ellipse_15" data-name="Ellipse 15" transform="translate(193 3293)" fill="#6e6363" stroke="#707070" stroke-width="1">
              <ellipse cx="15" cy="13.5" rx="15" ry="13.5" stroke="none"/>
              <ellipse cx="15" cy="13.5" rx="14.5" ry="13" fill="none"/>
            </g>
            <line id="Line_177" data-name="Line 177" x2="748" transform="translate(274.5 3305.5)" fill="none" stroke="#707070" stroke-width="1"/>
          </g>
          <g transform="translate(-171 -3189)">
            <g id="Ellipse_14-2" data-name="Ellipse 14" transform="translate(171 3273)" fill="#fff" stroke="#707070" stroke-width="1">
              <ellipse cx="34.5" cy="32" rx="34.5" ry="32" stroke="none"/>
              <ellipse cx="34.5" cy="32" rx="34" ry="31.5" fill="none"/>
            </g>
            <g id="Ellipse_15-2" data-name="Ellipse 15" transform="translate(193 3293)" fill="#6e6363" stroke="#707070" stroke-width="1">
              <ellipse cx="15" cy="13.5" rx="15" ry="13.5" stroke="none"/>
              <ellipse cx="15" cy="13.5" rx="14.5" ry="13" fill="none"/>
            </g>
            <line id="Line_177-2" data-name="Line 177" x2="748" transform="translate(274.5 3305.5)" fill="none" stroke="#707070" stroke-width="1"/>
          </g>
          <g transform="translate(-171 -3105)">
            <g id="Ellipse_14-3" data-name="Ellipse 14" transform="translate(171 3273)" fill="#fff" stroke="#707070" stroke-width="1">
              <ellipse cx="34.5" cy="32" rx="34.5" ry="32" stroke="none"/>
              <ellipse cx="34.5" cy="32" rx="34" ry="31.5" fill="none"/>
            </g>
            <g id="Ellipse_15-3" data-name="Ellipse 15" transform="translate(193 3293)" fill="#6e6363" stroke="#707070" stroke-width="1">
              <ellipse cx="15" cy="13.5" rx="15" ry="13.5" stroke="none"/>
              <ellipse cx="15" cy="13.5" rx="14.5" ry="13" fill="none"/>
            </g>
            <line id="Line_177-3" data-name="Line 177" x2="748" transform="translate(274.5 3305.5)" fill="none" stroke="#707070" stroke-width="1"/>
          </g>
          <g transform="translate(-171 -3021)">
            <g id="Ellipse_14-4" data-name="Ellipse 14" transform="translate(171 3273)" fill="#fff" stroke="#707070" stroke-width="1">
              <ellipse cx="34.5" cy="32" rx="34.5" ry="32" stroke="none"/>
              <ellipse cx="34.5" cy="32" rx="34" ry="31.5" fill="none"/>
            </g>
            <g id="Ellipse_15-4" data-name="Ellipse 15" transform="translate(193 3293)" fill="#6e6363" stroke="#707070" stroke-width="1">
              <ellipse cx="15" cy="13.5" rx="15" ry="13.5" stroke="none"/>
              <ellipse cx="15" cy="13.5" rx="14.5" ry="13" fill="none"/>
            </g>
            <line id="Line_177-4" data-name="Line 177" x2="748" transform="translate(274.5 3305.5)" fill="none" stroke="#707070" stroke-width="1"/>
          </g>
        </g>
      </g>
      <g transform="translate(-72 -2663)">
        <g id="Rectangle_58-2" data-name="Rectangle 58" transform="translate(72 3140)" fill="#7b7676" stroke="#707070" stroke-width="1">
          <rect width="1725" height="17" stroke="none"/>
          <rect x="0.5" y="0.5" width="1724" height="16" fill="none"/>
        </g>
        <g id="Rectangle_59-2" data-name="Rectangle 59" transform="translate(72 3199)" fill="#7b7676" stroke="#707070" stroke-width="1">
          <rect width="561" height="15" stroke="none"/>
          <rect x="0.5" y="0.5" width="560" height="14" fill="none"/>
        </g>
        <g id="Repeat_Grid_5-2" data-name="Repeat Grid 5" transform="translate(171 3273)" clip-path="url(#clip-path-10)">
          <g transform="translate(-171 -3273)">
            <g id="Ellipse_14-5" data-name="Ellipse 14" transform="translate(171 3273)" fill="#fff" stroke="#707070" stroke-width="1">
              <ellipse cx="34.5" cy="32" rx="34.5" ry="32" stroke="none"/>
              <ellipse cx="34.5" cy="32" rx="34" ry="31.5" fill="none"/>
            </g>
            <g id="Ellipse_15-5" data-name="Ellipse 15" transform="translate(193 3293)" fill="#6e6363" stroke="#707070" stroke-width="1">
              <ellipse cx="15" cy="13.5" rx="15" ry="13.5" stroke="none"/>
              <ellipse cx="15" cy="13.5" rx="14.5" ry="13" fill="none"/>
            </g>
            <line id="Line_177-5" data-name="Line 177" x2="748" transform="translate(274.5 3305.5)" fill="none" stroke="#707070" stroke-width="1"/>
          </g>
          <g transform="translate(-171 -3189)">
            <g id="Ellipse_14-6" data-name="Ellipse 14" transform="translate(171 3273)" fill="#fff" stroke="#707070" stroke-width="1">
              <ellipse cx="34.5" cy="32" rx="34.5" ry="32" stroke="none"/>
              <ellipse cx="34.5" cy="32" rx="34" ry="31.5" fill="none"/>
            </g>
            <g id="Ellipse_15-6" data-name="Ellipse 15" transform="translate(193 3293)" fill="#6e6363" stroke="#707070" stroke-width="1">
              <ellipse cx="15" cy="13.5" rx="15" ry="13.5" stroke="none"/>
              <ellipse cx="15" cy="13.5" rx="14.5" ry="13" fill="none"/>
            </g>
            <line id="Line_177-6" data-name="Line 177" x2="748" transform="translate(274.5 3305.5)" fill="none" stroke="#707070" stroke-width="1"/>
          </g>
          <g transform="translate(-171 -3105)">
            <g id="Ellipse_14-7" data-name="Ellipse 14" transform="translate(171 3273)" fill="#fff" stroke="#707070" stroke-width="1">
              <ellipse cx="34.5" cy="32" rx="34.5" ry="32" stroke="none"/>
              <ellipse cx="34.5" cy="32" rx="34" ry="31.5" fill="none"/>
            </g>
            <g id="Ellipse_15-7" data-name="Ellipse 15" transform="translate(193 3293)" fill="#6e6363" stroke="#707070" stroke-width="1">
              <ellipse cx="15" cy="13.5" rx="15" ry="13.5" stroke="none"/>
              <ellipse cx="15" cy="13.5" rx="14.5" ry="13" fill="none"/>
            </g>
            <line id="Line_177-7" data-name="Line 177" x2="748" transform="translate(274.5 3305.5)" fill="none" stroke="#707070" stroke-width="1"/>
          </g>
          <g transform="translate(-171 -3021)">
            <g id="Ellipse_14-8" data-name="Ellipse 14" transform="translate(171 3273)" fill="#fff" stroke="#707070" stroke-width="1">
              <ellipse cx="34.5" cy="32" rx="34.5" ry="32" stroke="none"/>
              <ellipse cx="34.5" cy="32" rx="34" ry="31.5" fill="none"/>
            </g>
            <g id="Ellipse_15-8" data-name="Ellipse 15" transform="translate(193 3293)" fill="#6e6363" stroke="#707070" stroke-width="1">
              <ellipse cx="15" cy="13.5" rx="15" ry="13.5" stroke="none"/>
              <ellipse cx="15" cy="13.5" rx="14.5" ry="13" fill="none"/>
            </g>
            <line id="Line_177-8" data-name="Line 177" x2="748" transform="translate(274.5 3305.5)" fill="none" stroke="#707070" stroke-width="1"/>
          </g>
        </g>
      </g>
    </g>
    <line id="Line_178" data-name="Line 178" x2="1920" y2="3" transform="translate(0.5 4580)" fill="none" stroke="#707070" stroke-width="1"/>
    <g id="Rectangle_60" data-name="Rectangle 60" transform="translate(73 4629)" fill="#1e1919" stroke="#707070" stroke-width="1">
      <rect width="227" height="42" stroke="none"/>
      <rect x="0.5" y="0.5" width="226" height="41" fill="none"/>
    </g>
    <line id="Line_179" data-name="Line 179" transform="translate(447.5 3291.5)" fill="none" stroke="#707070" stroke-width="1"/>
    <g id="Repeat_Grid_7" data-name="Repeat Grid 7" transform="translate(72.5 4718.5)" clip-path="url(#clip-path-12)">
      <g transform="translate(-72.5 -3711)">
        <line id="Line_180" data-name="Line 180" x2="190" transform="translate(72.5 3711.5)" fill="none" stroke="#707070" stroke-width="1"/>
      </g>
      <g transform="translate(-72.5 -3690)">
        <line id="Line_180-2" data-name="Line 180" x2="190" transform="translate(72.5 3711.5)" fill="none" stroke="#707070" stroke-width="1"/>
      </g>
      <g transform="translate(-72.5 -3669)">
        <line id="Line_180-3" data-name="Line 180" x2="190" transform="translate(72.5 3711.5)" fill="none" stroke="#707070" stroke-width="1"/>
      </g>
      <g transform="translate(-72.5 -3648)">
        <line id="Line_180-4" data-name="Line 180" x2="190" transform="translate(72.5 3711.5)" fill="none" stroke="#707070" stroke-width="1"/>
      </g>
      <g transform="translate(-72.5 -3627)">
        <line id="Line_180-5" data-name="Line 180" x2="190" transform="translate(72.5 3711.5)" fill="none" stroke="#707070" stroke-width="1"/>
      </g>
    </g>
    <line id="Line_181" data-name="Line 181" x2="964" transform="translate(58.5 4910)" fill="none" stroke="#707070" stroke-width="1"/>
    <line id="Line_182" data-name="Line 182" x2="389" y2="3" transform="translate(58.5 4969)" fill="none" stroke="#707070" stroke-width="1"/>
    <g id="Ellipse_2" data-name="Ellipse 2" transform="translate(1239 4905)" fill="#fff" stroke="#707070" stroke-width="1">
      <ellipse cx="37" cy="32" rx="37" ry="32" stroke="none"/>
      <ellipse cx="37" cy="32" rx="36.5" ry="31.5" fill="none"/>
    </g>
    <text id="f" transform="translate(1258.5 4910.5)" fill="#707070" stroke="#000" stroke-width="1" font-size="45" font-family="SegoeUI, Segoe UI"><tspan x="0" y="49">f</tspan></text>
    <g id="Repeat_Grid_8" data-name="Repeat Grid 8" transform="translate(1396 4905.5)" clip-path="url(#clip-path-13)">
      <g transform="translate(-1396 -3898)">
        <g id="Ellipse_16" data-name="Ellipse 16" transform="translate(1396 3898)" fill="#fff" stroke="#707070" stroke-width="1">
          <ellipse cx="39" cy="33.5" rx="39" ry="33.5" stroke="none"/>
          <ellipse cx="39" cy="33.5" rx="38.5" ry="33" fill="none"/>
        </g>
      </g>
      <g transform="translate(-1246 -3898)">
        <g id="Ellipse_16-2" data-name="Ellipse 16" transform="translate(1396 3898)" fill="#fff" stroke="#707070" stroke-width="1">
          <ellipse cx="39" cy="33.5" rx="39" ry="33.5" stroke="none"/>
          <ellipse cx="39" cy="33.5" rx="38.5" ry="33" fill="none"/>
        </g>
      </g>
    </g>
    <g id="Polygon_2" data-name="Polygon 2" transform="matrix(0.017, 1, -1, 0.017, 173.085, 2780.963)" fill="#0b0b87">
      <path d="M 46.27577590942383 61.5 L 0.7242244482040405 61.5 L 23.5 1.410719752311707 L 46.27577590942383 61.5 Z" stroke="none"/>
      <path d="M 23.5 2.821449279785156 L 1.448451995849609 61 L 45.55154800415039 61 L 23.5 2.821449279785156 M 23.5 0 L 47 62 L 0 62 L 23.5 0 Z" stroke="none" fill="#707070"/>
    </g>
    <g id="Rectangle_61" data-name="Rectangle 61" transform="translate(184 2795)" fill="#0b0b87" stroke="#707070" stroke-width="1">
      <rect width="528" height="24" stroke="none"/>
      <rect x="0.5" y="0.5" width="527" height="23" fill="none"/>
    </g>
    <g id="Repeat_Grid_9" data-name="Repeat Grid 9" transform="translate(74.5 3004)" clip-path="url(#clip-path-14)">
      <g transform="translate(-74.5 -3004)">
        <line id="Line_183" data-name="Line 183" x2="831" transform="translate(74.5 3004.5)" fill="none" stroke="#707070" stroke-width="1"/>
      </g>
      <g transform="translate(-74.5 -2951)">
        <line id="Line_183-2" data-name="Line 183" x2="831" transform="translate(74.5 3004.5)" fill="none" stroke="#707070" stroke-width="1"/>
      </g>
      <g transform="translate(-74.5 -2898)">
        <line id="Line_183-3" data-name="Line 183" x2="831" transform="translate(74.5 3004.5)" fill="none" stroke="#707070" stroke-width="1"/>
      </g>
      <g transform="translate(-74.5 -2845)">
        <line id="Line_183-4" data-name="Line 183" x2="831" transform="translate(74.5 3004.5)" fill="none" stroke="#707070" stroke-width="1"/>
      </g>
      <g transform="translate(-74.5 -2792)">
        <line id="Line_183-5" data-name="Line 183" x2="831" transform="translate(74.5 3004.5)" fill="none" stroke="#707070" stroke-width="1"/>
      </g>
      <g transform="translate(-74.5 -2739)">
        <line id="Line_183-6" data-name="Line 183" x2="831" transform="translate(74.5 3004.5)" fill="none" stroke="#707070" stroke-width="1"/>
      </g>
      <g transform="translate(-74.5 -2686)">
        <line id="Line_183-7" data-name="Line 183" x2="831" transform="translate(74.5 3004.5)" fill="none" stroke="#707070" stroke-width="1"/>
      </g>
      <g transform="translate(-74.5 -2633)">
        <line id="Line_183-8" data-name="Line 183" x2="831" transform="translate(74.5 3004.5)" fill="none" stroke="#707070" stroke-width="1"/>
      </g>
      <g transform="translate(-74.5 -2580)">
        <line id="Line_183-9" data-name="Line 183" x2="831" transform="translate(74.5 3004.5)" fill="none" stroke="#707070" stroke-width="1"/>
      </g>
      <g transform="translate(-74.5 -2527)">
        <line id="Line_183-10" data-name="Line 183" x2="831" transform="translate(74.5 3004.5)" fill="none" stroke="#707070" stroke-width="1"/>
      </g>
    </g>
    <g id="Repeat_Grid_10" data-name="Repeat Grid 10" transform="translate(1023 3004)" clip-path="url(#clip-path-15)">
      <g transform="translate(-1023 -3004)">
        <g id="Rectangle_62" data-name="Rectangle 62" transform="translate(1023 3004)" fill="#fff" stroke="#707070" stroke-width="1">
          <rect width="229" height="99" stroke="none"/>
          <rect x="0.5" y="0.5" width="228" height="98" fill="none"/>
        </g>
      </g>
      <g transform="translate(-793 -3004)">
        <g id="Rectangle_62-2" data-name="Rectangle 62" transform="translate(1023 3004)" fill="#fff" stroke="#707070" stroke-width="1">
          <rect width="229" height="99" stroke="none"/>
          <rect x="0.5" y="0.5" width="228" height="98" fill="none"/>
        </g>
      </g>
      <g transform="translate(-563 -3004)">
        <g id="Rectangle_62-3" data-name="Rectangle 62" transform="translate(1023 3004)" fill="#fff" stroke="#707070" stroke-width="1">
          <rect width="229" height="99" stroke="none"/>
          <rect x="0.5" y="0.5" width="228" height="98" fill="none"/>
        </g>
      </g>
      <g transform="translate(-1023 -2907)">
        <g id="Rectangle_62-4" data-name="Rectangle 62" transform="translate(1023 3004)" fill="#fff" stroke="#707070" stroke-width="1">
          <rect width="229" height="99" stroke="none"/>
          <rect x="0.5" y="0.5" width="228" height="98" fill="none"/>
        </g>
      </g>
      <g transform="translate(-793 -2907)">
        <g id="Rectangle_62-5" data-name="Rectangle 62" transform="translate(1023 3004)" fill="#fff" stroke="#707070" stroke-width="1">
          <rect width="229" height="99" stroke="none"/>
          <rect x="0.5" y="0.5" width="228" height="98" fill="none"/>
        </g>
      </g>
      <g transform="translate(-563 -2907)">
        <g id="Rectangle_62-6" data-name="Rectangle 62" transform="translate(1023 3004)" fill="#fff" stroke="#707070" stroke-width="1">
          <rect width="229" height="99" stroke="none"/>
          <rect x="0.5" y="0.5" width="228" height="98" fill="none"/>
        </g>
      </g>
      <g transform="translate(-1023 -2810)">
        <g id="Rectangle_62-7" data-name="Rectangle 62" transform="translate(1023 3004)" fill="#fff" stroke="#707070" stroke-width="1">
          <rect width="229" height="99" stroke="none"/>
          <rect x="0.5" y="0.5" width="228" height="98" fill="none"/>
        </g>
      </g>
      <g transform="translate(-793 -2810)">
        <g id="Rectangle_62-8" data-name="Rectangle 62" transform="translate(1023 3004)" fill="#fff" stroke="#707070" stroke-width="1">
          <rect width="229" height="99" stroke="none"/>
          <rect x="0.5" y="0.5" width="228" height="98" fill="none"/>
        </g>
      </g>
      <g transform="translate(-563 -2810)">
        <g id="Rectangle_62-9" data-name="Rectangle 62" transform="translate(1023 3004)" fill="#fff" stroke="#707070" stroke-width="1">
          <rect width="229" height="99" stroke="none"/>
          <rect x="0.5" y="0.5" width="228" height="98" fill="none"/>
        </g>
      </g>
      <g transform="translate(-1023 -2713)">
        <g id="Rectangle_62-10" data-name="Rectangle 62" transform="translate(1023 3004)" fill="#fff" stroke="#707070" stroke-width="1">
          <rect width="229" height="99" stroke="none"/>
          <rect x="0.5" y="0.5" width="228" height="98" fill="none"/>
        </g>
      </g>
      <g transform="translate(-793 -2713)">
        <g id="Rectangle_62-11" data-name="Rectangle 62" transform="translate(1023 3004)" fill="#fff" stroke="#707070" stroke-width="1">
          <rect width="229" height="99" stroke="none"/>
          <rect x="0.5" y="0.5" width="228" height="98" fill="none"/>
        </g>
      </g>
      <g transform="translate(-563 -2713)">
        <g id="Rectangle_62-12" data-name="Rectangle 62" transform="translate(1023 3004)" fill="#fff" stroke="#707070" stroke-width="1">
          <rect width="229" height="99" stroke="none"/>
          <rect x="0.5" y="0.5" width="228" height="98" fill="none"/>
        </g>
      </g>
      <g transform="translate(-1023 -2616)">
        <g id="Rectangle_62-13" data-name="Rectangle 62" transform="translate(1023 3004)" fill="#fff" stroke="#707070" stroke-width="1">
          <rect width="229" height="99" stroke="none"/>
          <rect x="0.5" y="0.5" width="228" height="98" fill="none"/>
        </g>
      </g>
      <g transform="translate(-793 -2616)">
        <g id="Rectangle_62-14" data-name="Rectangle 62" transform="translate(1023 3004)" fill="#fff" stroke="#707070" stroke-width="1">
          <rect width="229" height="99" stroke="none"/>
          <rect x="0.5" y="0.5" width="228" height="98" fill="none"/>
        </g>
      </g>
      <g transform="translate(-563 -2616)">
        <g id="Rectangle_62-15" data-name="Rectangle 62" transform="translate(1023 3004)" fill="#fff" stroke="#707070" stroke-width="1">
          <rect width="229" height="99" stroke="none"/>
          <rect x="0.5" y="0.5" width="228" height="98" fill="none"/>
        </g>
      </g>
      <g transform="translate(-1023 -2519)">
        <g id="Rectangle_62-16" data-name="Rectangle 62" transform="translate(1023 3004)" fill="#fff" stroke="#707070" stroke-width="1">
          <rect width="229" height="99" stroke="none"/>
          <rect x="0.5" y="0.5" width="228" height="98" fill="none"/>
        </g>
      </g>
      <g transform="translate(-793 -2519)">
        <g id="Rectangle_62-17" data-name="Rectangle 62" transform="translate(1023 3004)" fill="#fff" stroke="#707070" stroke-width="1">
          <rect width="229" height="99" stroke="none"/>
          <rect x="0.5" y="0.5" width="228" height="98" fill="none"/>
        </g>
      </g>
      <g transform="translate(-563 -2519)">
        <g id="Rectangle_62-18" data-name="Rectangle 62" transform="translate(1023 3004)" fill="#fff" stroke="#707070" stroke-width="1">
          <rect width="229" height="99" stroke="none"/>
          <rect x="0.5" y="0.5" width="228" height="98" fill="none"/>
        </g>
      </g>
      <g transform="translate(-1023 -2422)">
        <g id="Rectangle_62-19" data-name="Rectangle 62" transform="translate(1023 3004)" fill="#fff" stroke="#707070" stroke-width="1">
          <rect width="229" height="99" stroke="none"/>
          <rect x="0.5" y="0.5" width="228" height="98" fill="none"/>
        </g>
      </g>
      <g transform="translate(-793 -2422)">
        <g id="Rectangle_62-20" data-name="Rectangle 62" transform="translate(1023 3004)" fill="#fff" stroke="#707070" stroke-width="1">
          <rect width="229" height="99" stroke="none"/>
          <rect x="0.5" y="0.5" width="228" height="98" fill="none"/>
        </g>
      </g>
      <g transform="translate(-563 -2422)">
        <g id="Rectangle_62-21" data-name="Rectangle 62" transform="translate(1023 3004)" fill="#fff" stroke="#707070" stroke-width="1">
          <rect width="229" height="99" stroke="none"/>
          <rect x="0.5" y="0.5" width="228" height="98" fill="none"/>
        </g>
      </g>
      <g transform="translate(-1023 -2325)">
        <g id="Rectangle_62-22" data-name="Rectangle 62" transform="translate(1023 3004)" fill="#fff" stroke="#707070" stroke-width="1">
          <rect width="229" height="99" stroke="none"/>
          <rect x="0.5" y="0.5" width="228" height="98" fill="none"/>
        </g>
      </g>
      <g transform="translate(-793 -2325)">
        <g id="Rectangle_62-23" data-name="Rectangle 62" transform="translate(1023 3004)" fill="#fff" stroke="#707070" stroke-width="1">
          <rect width="229" height="99" stroke="none"/>
          <rect x="0.5" y="0.5" width="228" height="98" fill="none"/>
        </g>
      </g>
      <g transform="translate(-563 -2325)">
        <g id="Rectangle_62-24" data-name="Rectangle 62" transform="translate(1023 3004)" fill="#fff" stroke="#707070" stroke-width="1">
          <rect width="229" height="99" stroke="none"/>
          <rect x="0.5" y="0.5" width="228" height="98" fill="none"/>
        </g>
      </g>
      <g transform="translate(-1023 -2228)">
        <g id="Rectangle_62-25" data-name="Rectangle 62" transform="translate(1023 3004)" fill="#fff" stroke="#707070" stroke-width="1">
          <rect width="229" height="99" stroke="none"/>
          <rect x="0.5" y="0.5" width="228" height="98" fill="none"/>
        </g>
      </g>
      <g transform="translate(-793 -2228)">
        <g id="Rectangle_62-26" data-name="Rectangle 62" transform="translate(1023 3004)" fill="#fff" stroke="#707070" stroke-width="1">
          <rect width="229" height="99" stroke="none"/>
          <rect x="0.5" y="0.5" width="228" height="98" fill="none"/>
        </g>
      </g>
      <g transform="translate(-563 -2228)">
        <g id="Rectangle_62-27" data-name="Rectangle 62" transform="translate(1023 3004)" fill="#fff" stroke="#707070" stroke-width="1">
          <rect width="229" height="99" stroke="none"/>
          <rect x="0.5" y="0.5" width="228" height="98" fill="none"/>
        </g>
      </g>
    </g>
    <line id="Line_184" data-name="Line 184" x2="698" transform="translate(1022.5 3847.5)" fill="none" stroke="#707070" stroke-width="1"/>
  </g>
</svg>
