<svg xmlns="http://www.w3.org/2000/svg" xmlns:xlink="http://www.w3.org/1999/xlink" width="1920" height="2000" viewBox="0 0 1920 2000">
  <defs>
    <filter id="Line_39" x="-8.504" y="1670" width="1938.009" height="36" filterUnits="userSpaceOnUse">
      <feOffset dy="3" input="SourceAlpha"/>
      <feGaussianBlur stdDeviation="3" result="blur"/>
      <feFlood flood-opacity="0.161"/>
      <feComposite operator="in" in2="blur"/>
      <feComposite in="SourceGraphic"/>
    </filter>
    <clipPath id="clip-Home_Page">
      <rect width="1920" height="2000"/>
    </clipPath>
  </defs>
  <g id="Home_Page" data-name="Home Page" clip-path="url(#clip-Home_Page)">
    <rect width="1920" height="2000" fill="#fff"/>
    <text id="L" transform="translate(134 82)" fill="#707070" stroke="#000" stroke-width="1" font-size="45" font-family="SegoeUI, Segoe UI"><tspan x="0" y="49">L</tspan></text>
    <text id="L-2" data-name="L" transform="translate(134 114)" fill="#707070" stroke="#000" stroke-width="1" font-size="45" font-family="SegoeUI, Segoe UI"><tspan x="0" y="49">L</tspan></text>
    <g id="Ellipse_1" data-name="Ellipse 1" transform="translate(72 87)" fill="#fff" stroke="#000" stroke-width="1">
      <ellipse cx="44.5" cy="50" rx="44.5" ry="50" stroke="none"/>
      <ellipse cx="44.5" cy="50" rx="44" ry="49.5" fill="none"/>
    </g>
    <text id="L-3" data-name="L" transform="translate(105 100)" fill="#707070" stroke="#000" stroke-width="1" font-size="45" font-family="SegoeUI, Segoe UI"><tspan x="0" y="49">L</tspan></text>
    <g id="Path_16" data-name="Path 16" transform="translate(776 87)" fill="#fff">
      <path d="M 965.5000610351563 99.5 L 247.1723327636719 99.5 L 158.7673950195313 99.5 L 0.5000669956207275 99.5 L 0.5000669956207275 0.5 L 965.5000610351563 0.5 L 965.5000610351563 99.5 Z" stroke="none"/>
      <path d="M 0.99993896484375 1 L 0.99993896484375 99 L 158.7672729492188 99 L 247.17236328125 99 L 964.9999389648438 99 L 964.9999389648438 1 L 164.48046875 1 L 0.99993896484375 1 M -6.103515625e-05 0 L 164.48046875 0 L -6.103515625e-05 0 L 965.9999389648438 0 L 965.9999389648438 100 C 965.9999389648438 100 515.8748779296875 100 247.17236328125 100 C 214.717529296875 100 184.8512573242188 100 158.7672729492188 100 C 15.465087890625 100 -13.6766357421875 100 -13.6766357421875 100 L -6.103515625e-05 100 L -6.103515625e-05 0 Z" stroke="none" fill="#707070"/>
    </g>
    <line id="Line_21" data-name="Line 21" y2="100" transform="translate(1285.5 87.5)" fill="none" stroke="#707070" stroke-width="1"/>
    <line id="Line_23" data-name="Line 23" y2="103" transform="translate(1022.5 87.5)" fill="none" stroke="#707070" stroke-width="1"/>
    <line id="Line_24" data-name="Line 24" x2="2" y2="103" transform="translate(1530.5 84.5)" fill="none" stroke="#707070" stroke-width="1"/>
    <line id="Line_25" data-name="Line 25" y1="5" x2="1920" transform="translate(0.5 235.5)" fill="none" stroke="#000" stroke-width="1"/>
    <g id="Rectangle_12" data-name="Rectangle 12" transform="translate(72 314)" fill="#4b4947" stroke="#000" stroke-width="1">
      <rect width="262" height="79" stroke="none"/>
      <rect x="0.5" y="0.5" width="261" height="78" fill="none"/>
    </g>
    <line id="Line_26" data-name="Line 26" x2="552" y2="3" transform="translate(72.5 462.5)" fill="none" stroke="#000" stroke-width="1"/>
    <line id="Line_27" data-name="Line 27" x2="350" transform="translate(72.5 530.5)" fill="none" stroke="#000" stroke-width="1"/>
    <line id="Line_28" data-name="Line 28" x2="542" transform="translate(72.5 604.5)" fill="none" stroke="#000" stroke-width="1"/>
    <line id="Line_29" data-name="Line 29" x2="350" y2="2" transform="translate(72.5 686.5)" fill="none" stroke="#000" stroke-width="1"/>
    <g id="Rectangle_13" data-name="Rectangle 13" transform="translate(927 314)" fill="#fff" stroke="#707070" stroke-width="1">
      <rect width="815" height="375" stroke="none"/>
      <rect x="0.5" y="0.5" width="814" height="374" fill="none"/>
    </g>
    <line id="Line_30" data-name="Line 30" x2="806" y2="372" transform="translate(936.5 314.5)" fill="none" stroke="#707070" stroke-width="1"/>
    <line id="Line_31" data-name="Line 31" x1="815" y2="372" transform="translate(927.5 314.5)" fill="none" stroke="#707070" stroke-width="1"/>
    <g id="Rectangle_14" data-name="Rectangle 14" transform="translate(72 847)" fill="#fff" stroke="#000" stroke-width="1">
      <rect width="553" height="505" stroke="none"/>
      <rect x="0.5" y="0.5" width="552" height="504" fill="none"/>
    </g>
    <line id="Line_32" data-name="Line 32" x2="542" y2="505" transform="translate(83.5 847.5)" fill="none" stroke="#000" stroke-width="1"/>
    <line id="Line_33" data-name="Line 33" x1="552" y2="505" transform="translate(72.5 847.5)" fill="none" stroke="#000" stroke-width="1"/>
    <g id="Rectangle_15" data-name="Rectangle 15" transform="translate(927 847)" fill="#707070" stroke="#707070" stroke-width="1">
      <rect width="315" height="92" stroke="none"/>
      <rect x="0.5" y="0.5" width="314" height="91" fill="none"/>
    </g>
    <line id="Line_34" data-name="Line 34" x2="644" y2="2" transform="translate(927.5 1025.5)" fill="none" stroke="#707070" stroke-width="1"/>
    <line id="Line_35" data-name="Line 35" x2="408" y2="2" transform="translate(927.5 1114.5)" fill="none" stroke="#707070" stroke-width="1"/>
    <line id="Line_36" data-name="Line 36" y1="2" x2="644" transform="translate(927.5 1210.5)" fill="none" stroke="#707070" stroke-width="1"/>
    <line id="Line_37" data-name="Line 37" y1="5" x2="407" transform="translate(927.5 1296.5)" fill="none" stroke="#707070" stroke-width="1"/>
    <line id="Line_38" data-name="Line 38" x2="1920" y2="10" transform="translate(0.5 1409.5)" fill="none" stroke="#000" stroke-width="1"/>
    <g transform="matrix(1, 0, 0, 1, 0, 0)" filter="url(#Line_39)">
      <line id="Line_39-2" data-name="Line 39" x2="1920" y2="17" transform="translate(0.5 1676.5)" fill="none" stroke="#707070" stroke-width="1"/>
    </g>
    <line id="Line_40" data-name="Line 40" x2="1137" y2="7" transform="translate(334.5 1500.5)" fill="none" stroke="#707070" stroke-width="1"/>
    <line id="Line_41" data-name="Line 41" x2="637" y2="6" transform="translate(354.5 1613.5)" fill="none" stroke="#707070" stroke-width="1"/>
    <g id="Rectangle_16" data-name="Rectangle 16" transform="translate(72 1710)" fill="#1e1919" stroke="#707070" stroke-width="1">
      <rect width="227" height="42" stroke="none"/>
      <rect x="0.5" y="0.5" width="226" height="41" fill="none"/>
    </g>
    <line id="Line_42" data-name="Line 42" x2="174" transform="translate(72.5 1786.5)" fill="none" stroke="#707070" stroke-width="1"/>
    <line id="Line_43" data-name="Line 43" y1="3" x2="174" transform="translate(72.5 1838.5)" fill="none" stroke="#707070" stroke-width="1"/>
    <line id="Line_44" data-name="Line 44" y1="2" x2="174" transform="translate(72.5 1812.5)" fill="none" stroke="#707070" stroke-width="1"/>
    <line id="Line_45" data-name="Line 45" x2="1191" y2="2" transform="translate(72.5 1943.5)" fill="none" stroke="#707070" stroke-width="1"/>
    <line id="Line_46" data-name="Line 46" x2="430" y2="2" transform="translate(72.5 1974.5)" fill="none" stroke="#707070" stroke-width="1"/>
    <g id="Ellipse_2" data-name="Ellipse 2" transform="translate(1408 1926)" fill="#fff" stroke="#707070" stroke-width="1">
      <ellipse cx="37" cy="32" rx="37" ry="32" stroke="none"/>
      <ellipse cx="37" cy="32" rx="36.5" ry="31.5" fill="none"/>
    </g>
    <g id="Ellipse_3" data-name="Ellipse 3" transform="translate(1561 1926)" fill="#fff" stroke="#707070" stroke-width="1">
      <ellipse cx="38" cy="32" rx="38" ry="32" stroke="none"/>
      <ellipse cx="38" cy="32" rx="37.5" ry="31.5" fill="none"/>
    </g>
    <g id="Ellipse_4" data-name="Ellipse 4" transform="translate(1722 1926)" fill="#fff" stroke="#707070" stroke-width="1">
      <ellipse cx="37" cy="32" rx="37" ry="32" stroke="none"/>
      <ellipse cx="37" cy="32" rx="36.5" ry="31.5" fill="none"/>
    </g>
    <text id="f" transform="translate(1436.5 1926.5)" fill="#707070" stroke="#000" stroke-width="1" font-size="45" font-family="SegoeUI, Segoe UI"><tspan x="0" y="49">f</tspan></text>
    <path id="Path_13" data-name="Path 13" d="M0,23" transform="translate(888.5 19.5)" fill="none" stroke="#707070" stroke-width="1"/>
    <line id="Line_47" data-name="Line 47" y1="45" x2="58" transform="translate(873.5 24.5)" fill="none" stroke="#707070" stroke-width="1"/>
    <text id="Navigation" transform="translate(937 11)" fill="#707070" font-size="20" font-family="SegoeUI, Segoe UI"><tspan x="0" y="22">Navigation</tspan></text>
    <line id="Line_48" data-name="Line 48" y2="11" transform="translate(866.5 63.5)" fill="none" stroke="#707070" stroke-width="1"/>
    <line id="Line_49" data-name="Line 49" x1="11" transform="translate(866.5 74.5)" fill="none" stroke="#707070" stroke-width="1"/>
    <line id="Line_50" data-name="Line 50" y1="92" x2="245" transform="translate(1359.5 847.5)" fill="none" stroke="#707070" stroke-width="1"/>
    <line id="Line_51" data-name="Line 51" x1="8" y2="29" transform="translate(1334.5 922.5)" fill="none" stroke="#707070" stroke-width="1"/>
    <line id="Line_52" data-name="Line 52" x1="35" transform="translate(1334.5 951.5)" fill="none" stroke="#707070" stroke-width="1"/>
    <text id="Services" transform="translate(1628.728 820.632) rotate(-11)" fill="#707070" font-size="30" font-family="SegoeUI, Segoe UI"><tspan x="0" y="32">Services</tspan></text>
    <line id="Line_53" data-name="Line 53" y1="34" x2="168" transform="translate(299.5 1752.5)" fill="none" stroke="#707070" stroke-width="1"/>
    <line id="Line_54" data-name="Line 54" x1="8" y2="12" transform="translate(286.5 1777.5)" fill="none" stroke="#707070" stroke-width="1"/>
    <line id="Line_55" data-name="Line 55" x1="13" y1="2" transform="translate(286.5 1789.5)" fill="none" stroke="#707070" stroke-width="1"/>
    <text id="List_of_partners" data-name="List of partners" transform="translate(476 1742)" fill="#707070" font-size="20" font-family="SegoeUI, Segoe UI"><tspan x="0" y="22">List of partners</tspan></text>
    <line id="Line_56" data-name="Line 56" y1="41" x2="42" transform="translate(778.5 87.5)" fill="none" stroke="#707070" stroke-width="1"/>
    <line id="Line_57" data-name="Line 57" y1="73" x2="73" transform="translate(778.5 87.5)" fill="none" stroke="#707070" stroke-width="1"/>
    <line id="Line_58" data-name="Line 58" y1="87" x2="88" transform="translate(778.5 87.5)" fill="none" stroke="#707070" stroke-width="1"/>
    <line id="Line_59" data-name="Line 59" y1="100" x2="103" transform="translate(799.5 87.5)" fill="none" stroke="#707070" stroke-width="1"/>
    <line id="Line_60" data-name="Line 60" y1="87" x2="80" transform="translate(851.5 87.5)" fill="none" stroke="#707070" stroke-width="1"/>
    <line id="Line_61" data-name="Line 61" y1="92" x2="83" transform="translate(877.5 82.5)" fill="none" stroke="#707070" stroke-width="1"/>
    <line id="Line_62" data-name="Line 62" y1="87" x2="77" transform="translate(927.5 87.5)" fill="none" stroke="#707070" stroke-width="1"/>
    <line id="Line_63" data-name="Line 63" y1="73" x2="67" transform="translate(937.5 114.5)" fill="none" stroke="#707070" stroke-width="1"/>
    <line id="Line_64" data-name="Line 64" y1="43" x2="51" transform="translate(971.5 131.5)" fill="none" stroke="#707070" stroke-width="1"/>
    <line id="Line_169" data-name="Line 169" x1="2" y1="248" transform="translate(409.5 124.5)" fill="none" stroke="#707070" stroke-width="1"/>
    <line id="Line_170" data-name="Line 170" x2="27" y2="40" transform="translate(382.5 353.5)" fill="none" stroke="#707070" stroke-width="1"/>
    <line id="Line_171" data-name="Line 171" x1="30" y2="40" transform="translate(411.5 353.5)" fill="none" stroke="#707070" stroke-width="1"/>
    <text id="Description_of_the_organization_" data-name="Description  of the organization " transform="translate(383.5 64.5)" fill="#707070" stroke="#000" stroke-width="1" font-size="35" font-family="SegoeUI, Segoe UI"><tspan x="0" y="38" xml:space="preserve">Description  of </tspan><tspan x="0" y="85">the organization </tspan></text>
    <line id="Line_172" data-name="Line 172" y1="45" x2="493" transform="translate(1180.5 1563.5)" fill="none" stroke="#707070" stroke-width="1"/>
    <path id="Path_24" data-name="Path 24" d="M0,0-60.975,41.117,10,80" transform="translate(1205.5 1568.5)" fill="none" stroke="#707070" stroke-width="1"/>
    <text id="Additional_services" data-name="Additional services" transform="translate(1615.5 1463.5)" fill="#707070" stroke="#000" stroke-width="1" font-size="35" font-family="SegoeUI, Segoe UI"><tspan x="0" y="38">Additional </tspan><tspan x="0" y="85">services</tspan></text>
    <line id="Line_173" data-name="Line 173" y1="88" x2="179" transform="translate(1091.5 1801.5)" fill="none" stroke="#707070" stroke-width="1"/>
    <path id="Path_25" data-name="Path 25" d="M0,0-19.486,48.445,32,37" transform="translate(1085.5 1862.5)" fill="none" stroke="#707070" stroke-width="1"/>
    <text id="_" data-name="©" transform="translate(1279.5 1735.5)" fill="#707070" stroke="#000" stroke-width="1" font-size="55" font-family="SegoeUI, Segoe UI"><tspan x="0" y="59">©</tspan></text>
    <text id="v" transform="translate(1323.5 1801.5)" fill="#707070" stroke="#000" stroke-width="1" font-size="55" font-family="SegoeUI, Segoe UI"><tspan x="0" y="59">v</tspan></text>
    <g id="Rectangle_56" data-name="Rectangle 56" transform="translate(1324 1822)" fill="#fff" stroke="#fff" stroke-width="1">
      <rect width="46" height="52" stroke="none"/>
      <rect x="0.5" y="0.5" width="45" height="51" fill="none"/>
    </g>
    <line id="Line_186" data-name="Line 186" y1="176" x2="182" transform="translate(1516.5 1652.5)" fill="none" stroke="#707070" stroke-width="1"/>
    <path id="Path_26" data-name="Path 26" d="M0,0-14.614,51.142,44,34" transform="translate(1531.5 1777.5)" fill="none" stroke="#707070" stroke-width="1"/>
    <text id="Footer" transform="translate(1722.5 1609.5)" fill="#707070" stroke="#000" stroke-width="1" font-size="45" font-family="SegoeUI, Segoe UI"><tspan x="0" y="49">Footer</tspan></text>
  </g>
</svg>
