<svg xmlns="http://www.w3.org/2000/svg" xmlns:xlink="http://www.w3.org/1999/xlink" width="1920" height="1080" viewBox="0 0 1920 1080">
  <defs>
    <clipPath id="clip-Web_1920_3">
      <rect width="1920" height="1080"/>
    </clipPath>
  </defs>
  <g id="Web_1920_3" data-name="Web 1920 – 3" clip-path="url(#clip-Web_1920_3)">
    <rect width="1920" height="1080" fill="#fff"/>
    <path id="Path_11" data-name="Path 11" d="M0,0,11.3,9.072l5.918-4.589L23,0" transform="translate(254.5 910.5)" fill="none" stroke="#707070" stroke-width="1"/>
    <g id="Ellipse_1" data-name="Ellipse 1" transform="translate(72 87)" fill="#fff" stroke="#000" stroke-width="1">
      <ellipse cx="44.5" cy="50" rx="44.5" ry="50" stroke="none"/>
      <ellipse cx="44.5" cy="50" rx="44" ry="49.5" fill="none"/>
    </g>
    <text id="L" transform="translate(105 100)" fill="#707070" stroke="#000" stroke-width="1" font-size="45" font-family="SegoeUI, Segoe UI"><tspan x="0" y="49">L</tspan></text>
    <g id="Path_16" data-name="Path 16" transform="translate(776 87)" fill="#fff">
      <path d="M 965.5000610351563 99.5 L 247.1723327636719 99.5 L 158.7673950195313 99.5 L 0.5000669956207275 99.5 L 0.5000669956207275 0.5 L 965.5000610351563 0.5 L 965.5000610351563 99.5 Z" stroke="none"/>
      <path d="M 0.99993896484375 1 L 0.99993896484375 99 L 158.7672729492188 99 L 247.17236328125 99 L 964.9999389648438 99 L 964.9999389648438 1 L 164.48046875 1 L 0.99993896484375 1 M -6.103515625e-05 0 L 164.48046875 0 L -6.103515625e-05 0 L 965.9999389648438 0 L 965.9999389648438 100 C 965.9999389648438 100 515.8748779296875 100 247.17236328125 100 C 214.717529296875 100 184.8512573242188 100 158.7672729492188 100 C 15.465087890625 100 -13.6766357421875 100 -13.6766357421875 100 L -6.103515625e-05 100 L -6.103515625e-05 0 Z" stroke="none" fill="#707070"/>
    </g>
    <line id="Line_21" data-name="Line 21" y2="100" transform="translate(1285.5 87.5)" fill="none" stroke="#707070" stroke-width="1"/>
    <line id="Line_23" data-name="Line 23" y2="103" transform="translate(1022.5 87.5)" fill="none" stroke="#707070" stroke-width="1"/>
    <line id="Line_24" data-name="Line 24" x2="2" y2="103" transform="translate(1530.5 84.5)" fill="none" stroke="#707070" stroke-width="1"/>
    <line id="Line_25" data-name="Line 25" y1="5" x2="1920" transform="translate(0.5 235.5)" fill="none" stroke="#000" stroke-width="1"/>
    <line id="Line_58" data-name="Line 58" y1="87" x2="88" transform="translate(778.5 87.5)" fill="none" stroke="#707070" stroke-width="1"/>
    <line id="Line_59" data-name="Line 59" y1="100" x2="103" transform="translate(799.5 87.5)" fill="none" stroke="#707070" stroke-width="1"/>
    <line id="Line_60" data-name="Line 60" y1="87" x2="80" transform="translate(851.5 87.5)" fill="none" stroke="#707070" stroke-width="1"/>
    <line id="Line_62" data-name="Line 62" y1="87" x2="77" transform="translate(927.5 87.5)" fill="none" stroke="#707070" stroke-width="1"/>
    <line id="Line_64" data-name="Line 64" y1="43" x2="51" transform="translate(971.5 131.5)" fill="none" stroke="#707070" stroke-width="1"/>
    <g id="Rectangle_16" data-name="Rectangle 16" transform="translate(72 791)" fill="#1e1919" stroke="#707070" stroke-width="1">
      <rect width="227" height="42" stroke="none"/>
      <rect x="0.5" y="0.5" width="226" height="41" fill="none"/>
    </g>
    <line id="Line_42" data-name="Line 42" x2="174" transform="translate(72.5 867.5)" fill="none" stroke="#707070" stroke-width="1"/>
    <line id="Line_43" data-name="Line 43" y1="3" x2="174" transform="translate(72.5 919.5)" fill="none" stroke="#707070" stroke-width="1"/>
    <line id="Line_44" data-name="Line 44" y1="2" x2="174" transform="translate(72.5 893.5)" fill="none" stroke="#707070" stroke-width="1"/>
    <line id="Line_45" data-name="Line 45" x2="1191" y2="2" transform="translate(72.5 1024.5)" fill="none" stroke="#707070" stroke-width="1"/>
    <line id="Line_46" data-name="Line 46" x2="430" y2="2" transform="translate(72.5 1055.5)" fill="none" stroke="#707070" stroke-width="1"/>
    <g id="Ellipse_2" data-name="Ellipse 2" transform="translate(1408 1007)" fill="#fff" stroke="#707070" stroke-width="1">
      <ellipse cx="37" cy="32" rx="37" ry="32" stroke="none"/>
      <ellipse cx="37" cy="32" rx="36.5" ry="31.5" fill="none"/>
    </g>
    <g id="Ellipse_3" data-name="Ellipse 3" transform="translate(1561 1007)" fill="#fff" stroke="#707070" stroke-width="1">
      <ellipse cx="38" cy="32" rx="38" ry="32" stroke="none"/>
      <ellipse cx="38" cy="32" rx="37.5" ry="31.5" fill="none"/>
    </g>
    <g id="Ellipse_4" data-name="Ellipse 4" transform="translate(1722 1007)" fill="#fff" stroke="#707070" stroke-width="1">
      <ellipse cx="37" cy="32" rx="37" ry="32" stroke="none"/>
      <ellipse cx="37" cy="32" rx="36.5" ry="31.5" fill="none"/>
    </g>
    <text id="f" transform="translate(1436.5 1007.5)" fill="#707070" stroke="#000" stroke-width="1" font-size="45" font-family="SegoeUI, Segoe UI"><tspan x="0" y="49">f</tspan></text>
    <line id="Line_53" data-name="Line 53" y1="34" x2="168" transform="translate(299.5 833.5)" fill="none" stroke="#707070" stroke-width="1"/>
    <line id="Line_55" data-name="Line 55" x1="13" y1="2" transform="translate(286.5 870.5)" fill="none" stroke="#707070" stroke-width="1"/>
    <text id="List_of_partners" data-name="List of partners" transform="translate(476 823)" fill="#707070" font-size="20" font-family="SegoeUI, Segoe UI"><tspan x="0" y="22">List of partners</tspan></text>
    <line id="Line_66" data-name="Line 66" x2="1920" y2="4" transform="translate(0.5 762.5)" fill="none" stroke="#707070" stroke-width="1"/>
    <line id="Line_69" data-name="Line 69" x2="12" transform="translate(299.5 583.5)" fill="none" stroke="#707070" stroke-width="1"/>
    <g id="Ellipse_5" data-name="Ellipse 5" transform="translate(384 412)" fill="#fff" stroke="#707070" stroke-width="1">
      <ellipse cx="59.5" cy="52.5" rx="59.5" ry="52.5" stroke="none"/>
      <ellipse cx="59.5" cy="52.5" rx="59" ry="52" fill="none"/>
    </g>
    <line id="Line_70" data-name="Line 70" x2="194" transform="translate(350.5 540.5)" fill="none" stroke="#707070" stroke-width="1"/>
    <line id="Line_71" data-name="Line 71" x2="194" transform="translate(350.5 583.5)" fill="none" stroke="#707070" stroke-width="1"/>
    <line id="Line_72" data-name="Line 72" x2="119" transform="translate(384.5 627.5)" fill="none" stroke="#707070" stroke-width="1"/>
    <g id="Ellipse_6" data-name="Ellipse 6" transform="translate(823 412)" fill="#fff" stroke="#707070" stroke-width="1">
      <ellipse cx="62" cy="52.5" rx="62" ry="52.5" stroke="none"/>
      <ellipse cx="62" cy="52.5" rx="61.5" ry="52" fill="none"/>
    </g>
    <g id="Ellipse_7" data-name="Ellipse 7" transform="translate(762 540)" fill="#fff" stroke="#707070" stroke-width="1">
      <ellipse cx="121.5" cy="0.5" rx="121.5" ry="0.5" stroke="none"/>
      <ellipse cx="121.5" cy="0.5" rx="121" fill="none"/>
    </g>
    <g id="Ellipse_8" data-name="Ellipse 8" transform="translate(779 583)" fill="#fff" stroke="#707070" stroke-width="1">
      <ellipse cx="109" cy="0.5" rx="109" ry="0.5" stroke="none"/>
      <ellipse cx="109" cy="0.5" rx="108.5" fill="none"/>
    </g>
    <g id="Ellipse_9" data-name="Ellipse 9" transform="translate(837 627)" fill="#fff" stroke="#707070" stroke-width="1">
      <ellipse cx="64.5" cy="0.5" rx="64.5" ry="0.5" stroke="none"/>
      <ellipse cx="64.5" cy="0.5" rx="64" fill="none"/>
    </g>
    <g id="Ellipse_10" data-name="Ellipse 10" transform="translate(1317 412)" fill="#fff" stroke="#707070" stroke-width="1">
      <ellipse cx="64" cy="52.5" rx="64" ry="52.5" stroke="none"/>
      <ellipse cx="64" cy="52.5" rx="63.5" ry="52" fill="none"/>
    </g>
    <g id="Ellipse_11" data-name="Ellipse 11" transform="translate(1286 540)" fill="#fff" stroke="#707070" stroke-width="1">
      <ellipse cx="111" cy="0.5" rx="111" ry="0.5" stroke="none"/>
      <ellipse cx="111" cy="0.5" rx="110.5" fill="none"/>
    </g>
    <g id="Ellipse_12" data-name="Ellipse 12" transform="translate(1264 583)" fill="#fff" stroke="#707070" stroke-width="1">
      <ellipse cx="134.5" cy="0.5" rx="134.5" ry="0.5" stroke="none"/>
      <ellipse cx="134.5" cy="0.5" rx="134" fill="none"/>
    </g>
    <g id="Ellipse_13" data-name="Ellipse 13" transform="translate(1342 627)" fill="#fff" stroke="#707070" stroke-width="1">
      <ellipse cx="70" cy="0.5" rx="70" ry="0.5" stroke="none"/>
      <ellipse cx="70" cy="0.5" rx="69.5" fill="none"/>
    </g>
    <line id="Line_74" data-name="Line 74" y1="58" x2="62" transform="translate(516.5 362.5)" fill="none" stroke="#707070" stroke-width="1"/>
    <text id="Phone_No" data-name="Phone No" transform="translate(632.927 335.5)" fill="#707070" stroke="#000" stroke-width="1" font-size="30" font-family="SegoeUI, Segoe UI"><tspan x="0" y="32">Phone </tspan></text>
    <line id="Line_77" data-name="Line 77" y1="58" x2="62" transform="translate(516.5 362.5)" fill="none" stroke="#707070" stroke-width="1"/>
    <text id="Phone_No-2" data-name="Phone No" transform="translate(632.927 335.5)" fill="#707070" stroke="#000" stroke-width="1" font-size="30" font-family="SegoeUI, Segoe UI"><tspan x="0" y="32">Phone No</tspan></text>
    <line id="Line_78" data-name="Line 78" x1="3" y2="8" transform="translate(509.5 415.5)" fill="none" stroke="#707070" stroke-width="1"/>
    <line id="Line_79" data-name="Line 79" x1="13" transform="translate(507.5 423.5)" fill="none" stroke="#707070" stroke-width="1"/>
    <line id="Line_80" data-name="Line 80" y1="96" x2="126" transform="translate(997.5 341.5)" fill="none" stroke="#707070" stroke-width="1"/>
    <path id="Path_17" data-name="Path 17" d="M0,0S-6.169,9.354-3.169,12.854,12,14,12,14" transform="translate(986.5 433.5)" fill="none" stroke="#707070" stroke-width="1"/>
    <text id="Email" transform="translate(1142.5 302.5)" fill="#707070" stroke="#000" stroke-width="1" font-size="30" font-family="SegoeUI, Segoe UI"><tspan x="0" y="32">Email</tspan></text>
    <line id="Line_81" data-name="Line 81" y1="81" x2="86" transform="translate(1504.5 352.5)" fill="none" stroke="#707070" stroke-width="1"/>
    <path id="Path_18" data-name="Path 18" d="M0,0V16H20" transform="translate(1488.5 430.5)" fill="none" stroke="#707070" stroke-width="1"/>
    <text id="FAX" transform="translate(1629.5 316.5)" fill="#707070" stroke="#000" stroke-width="1" font-size="30" font-family="SegoeUI, Segoe UI"><tspan x="0" y="32">FAX</tspan></text>
  </g>
</svg>
