<svg xmlns="http://www.w3.org/2000/svg" xmlns:xlink="http://www.w3.org/1999/xlink" width="1920" height="2150" viewBox="0 0 1920 2150">
  <defs>
    <clipPath id="clip-Web_1920_7">
      <rect width="1920" height="2150"/>
    </clipPath>
  </defs>
  <g id="Web_1920_7" data-name="Web 1920 – 7" clip-path="url(#clip-Web_1920_7)">
    <rect width="1920" height="2150" fill="#fff"/>
    <g id="Ellipse_1" data-name="Ellipse 1" transform="translate(72 87)" fill="#fff" stroke="#000" stroke-width="1">
      <ellipse cx="44.5" cy="50" rx="44.5" ry="50" stroke="none"/>
      <ellipse cx="44.5" cy="50" rx="44" ry="49.5" fill="none"/>
    </g>
    <text id="L" transform="translate(105 100)" fill="#707070" stroke="#000" stroke-width="1" font-size="45" font-family="SegoeUI, Segoe UI"><tspan x="0" y="49">L</tspan></text>
    <g id="Path_16" data-name="Path 16" transform="translate(776 87)" fill="#fff">
      <path d="M 965.5000610351563 99.5 L 247.1723327636719 99.5 L 158.7673950195313 99.5 L 0.5000669956207275 99.5 L 0.5000669956207275 0.5 L 965.5000610351563 0.5 L 965.5000610351563 99.5 Z" stroke="none"/>
      <path d="M 0.99993896484375 1 L 0.99993896484375 99 L 158.7672729492188 99 L 247.17236328125 99 L 964.9999389648438 99 L 964.9999389648438 1 L 164.48046875 1 L 0.99993896484375 1 M -6.103515625e-05 0 L 164.48046875 0 L -6.103515625e-05 0 L 965.9999389648438 0 L 965.9999389648438 100 C 965.9999389648438 100 515.8748779296875 100 247.17236328125 100 C 214.717529296875 100 184.8512573242188 100 158.7672729492188 100 C 15.465087890625 100 -13.6766357421875 100 -13.6766357421875 100 L -6.103515625e-05 100 L -6.103515625e-05 0 Z" stroke="none" fill="#707070"/>
    </g>
    <line id="Line_21" data-name="Line 21" y2="100" transform="translate(1285.5 87.5)" fill="none" stroke="#707070" stroke-width="1"/>
    <line id="Line_23" data-name="Line 23" y2="103" transform="translate(1022.5 87.5)" fill="none" stroke="#707070" stroke-width="1"/>
    <line id="Line_24" data-name="Line 24" x2="2" y2="103" transform="translate(1530.5 84.5)" fill="none" stroke="#707070" stroke-width="1"/>
    <line id="Line_25" data-name="Line 25" y1="5" x2="1920" transform="translate(0.5 235.5)" fill="none" stroke="#000" stroke-width="1"/>
    <line id="Line_107" data-name="Line 107" y1="15" x2="1920" transform="translate(0.5 419.5)" fill="none" stroke="#707070" stroke-width="1"/>
    <line id="Line_108" data-name="Line 108" y1="27" x2="33" transform="translate(0.5 240.5)" fill="none" stroke="#707070" stroke-width="1"/>
    <line id="Line_109" data-name="Line 109" y1="66" x2="105" transform="translate(0.5 235.5)" fill="none" stroke="#707070" stroke-width="1"/>
    <line id="Line_110" data-name="Line 110" y1="27" x2="30" transform="translate(116.5 240.5)" fill="none" stroke="#707070" stroke-width="1"/>
    <path id="Path_22" data-name="Path 22" d="M296,18,158.984,9.668,0,0" transform="translate(399.5 307.5)" fill="none" stroke="#707070" stroke-width="1"/>
    <text id="Name_of_the_subject" data-name="Name of the subject" transform="translate(218.5 316.5)" fill="#707070" stroke="#000" stroke-width="1" font-size="35" font-family="SegoeUI, Segoe UI"><tspan x="0" y="38">Name of the subject</tspan></text>
    <line id="Line_114" data-name="Line 114" x2="707" transform="translate(72.5 540.5)" fill="none" stroke="#707070" stroke-width="1"/>
    <line id="Line_115" data-name="Line 115" x2="707" transform="translate(72.5 604.5)" fill="none" stroke="#707070" stroke-width="1"/>
    <line id="Line_116" data-name="Line 116" y1="2" x2="707" transform="translate(72.5 674.5)" fill="none" stroke="#707070" stroke-width="1"/>
    <line id="Line_117" data-name="Line 117" y1="5" x2="707" transform="translate(72.5 755.5)" fill="none" stroke="#707070" stroke-width="1"/>
    <line id="Line_118" data-name="Line 118" y1="5" x2="468" transform="translate(72.5 831.5)" fill="none" stroke="#707070" stroke-width="1"/>
    <g id="Rectangle_34" data-name="Rectangle 34" transform="translate(1034 541)" fill="#fff" stroke="#707070" stroke-width="1">
      <rect width="708" height="296" stroke="none"/>
      <rect x="0.5" y="0.5" width="707" height="295" fill="none"/>
    </g>
    <line id="Line_119" data-name="Line 119" x2="697" y2="293" transform="translate(1045.5 541.5)" fill="none" stroke="#707070" stroke-width="1"/>
    <line id="Line_120" data-name="Line 120" x1="708" y2="295" transform="translate(1034.5 541.5)" fill="none" stroke="#707070" stroke-width="1"/>
    <text id="Chapters" transform="translate(73.5 1032.5)" fill="#707070" stroke="#000" stroke-width="1" font-size="45" font-family="SegoeUI, Segoe UI"><tspan x="0" y="49">Chapters</tspan></text>
    <g id="Rectangle_35" data-name="Rectangle 35" transform="translate(73 1133)" fill="#fff" stroke="#707070" stroke-width="1">
      <rect width="66" height="54" stroke="none"/>
      <rect x="0.5" y="0.5" width="65" height="53" fill="none"/>
    </g>
    <g id="Rectangle_36" data-name="Rectangle 36" transform="translate(73 1241)" fill="#fff" stroke="#707070" stroke-width="1">
      <rect width="66" height="57" stroke="none"/>
      <rect x="0.5" y="0.5" width="65" height="56" fill="none"/>
    </g>
    <g id="Rectangle_37" data-name="Rectangle 37" transform="translate(74 1354)" fill="#fff" stroke="#707070" stroke-width="1">
      <rect width="65" height="62" stroke="none"/>
      <rect x="0.5" y="0.5" width="64" height="61" fill="none"/>
    </g>
    <g id="Rectangle_38" data-name="Rectangle 38" transform="translate(73 1468)" fill="#fff" stroke="#707070" stroke-width="1">
      <rect width="66" height="59" stroke="none"/>
      <rect x="0.5" y="0.5" width="65" height="58" fill="none"/>
    </g>
    <g id="Rectangle_39" data-name="Rectangle 39" transform="translate(73 1586)" fill="#fff" stroke="#707070" stroke-width="1">
      <rect width="66" height="54" stroke="none"/>
      <rect x="0.5" y="0.5" width="65" height="53" fill="none"/>
    </g>
    <line id="Line_121" data-name="Line 121" x2="67" y2="54" transform="translate(72.5 1133.5)" fill="none" stroke="#707070" stroke-width="1"/>
    <line id="Line_122" data-name="Line 122" x1="67" y2="54" transform="translate(72.5 1133.5)" fill="none" stroke="#707070" stroke-width="1"/>
    <line id="Line_123" data-name="Line 123" x2="65" y2="57" transform="translate(74.5 1241.5)" fill="none" stroke="#707070" stroke-width="1"/>
    <line id="Line_124" data-name="Line 124" x1="65" y2="57" transform="translate(74.5 1241.5)" fill="none" stroke="#707070" stroke-width="1"/>
    <line id="Line_125" data-name="Line 125" x2="65" y2="62" transform="translate(74.5 1354.5)" fill="none" stroke="#707070" stroke-width="1"/>
    <line id="Line_126" data-name="Line 126" x1="65" y2="62" transform="translate(74.5 1354.5)" fill="none" stroke="#707070" stroke-width="1"/>
    <line id="Line_127" data-name="Line 127" x2="67" y2="59" transform="translate(72.5 1468.5)" fill="none" stroke="#707070" stroke-width="1"/>
    <line id="Line_128" data-name="Line 128" x1="65" y2="59" transform="translate(74.5 1468.5)" fill="none" stroke="#707070" stroke-width="1"/>
    <line id="Line_129" data-name="Line 129" x1="67" y2="54" transform="translate(72.5 1586.5)" fill="none" stroke="#707070" stroke-width="1"/>
    <line id="Line_130" data-name="Line 130" x2="67" y2="54" transform="translate(72.5 1586.5)" fill="none" stroke="#707070" stroke-width="1"/>
    <g id="Rectangle_40" data-name="Rectangle 40" transform="translate(163 1150)" fill="#636060" stroke="#707070" stroke-width="1">
      <rect width="629" height="11" stroke="none"/>
      <rect x="0.5" y="0.5" width="628" height="10" fill="none"/>
    </g>
    <g id="Rectangle_41" data-name="Rectangle 41" transform="translate(151 1256)" fill="#636060" stroke="#707070" stroke-width="1">
      <rect width="641" height="14" stroke="none"/>
      <rect x="0.5" y="0.5" width="640" height="13" fill="none"/>
    </g>
    <g id="Rectangle_42" data-name="Rectangle 42" transform="translate(151 1369)" fill="#636060" stroke="#707070" stroke-width="1">
      <rect width="641" height="16" stroke="none"/>
      <rect x="0.5" y="0.5" width="640" height="15" fill="none"/>
    </g>
    <g id="Rectangle_43" data-name="Rectangle 43" transform="translate(151 1483)" fill="#636060" stroke="#707070" stroke-width="1">
      <rect width="641" height="15" stroke="none"/>
      <rect x="0.5" y="0.5" width="640" height="14" fill="none"/>
    </g>
    <g id="Rectangle_44" data-name="Rectangle 44" transform="translate(151 1599)" fill="#636060" stroke="#707070" stroke-width="1">
      <rect width="641" height="14" stroke="none"/>
      <rect x="0.5" y="0.5" width="640" height="13" fill="none"/>
    </g>
    <text id="Objectives" transform="translate(1090.5 1033.5)" fill="#707070" stroke="#000" stroke-width="1" font-size="45" font-family="SegoeUI, Segoe UI"><tspan x="0" y="49">Objectives</tspan></text>
    <g id="Rectangle_45" data-name="Rectangle 45" transform="translate(73 1133)" fill="#fff" stroke="#707070" stroke-width="1">
      <rect width="66" height="54" stroke="none"/>
      <rect x="0.5" y="0.5" width="65" height="53" fill="none"/>
    </g>
    <line id="Line_131" data-name="Line 131" x2="67" y2="54" transform="translate(72.5 1133.5)" fill="none" stroke="#707070" stroke-width="1"/>
    <line id="Line_132" data-name="Line 132" x1="67" y2="54" transform="translate(72.5 1133.5)" fill="none" stroke="#707070" stroke-width="1"/>
    <g id="Rectangle_46" data-name="Rectangle 46" transform="translate(73 1133)" fill="#fff" stroke="#707070" stroke-width="1">
      <rect width="66" height="54" stroke="none"/>
      <rect x="0.5" y="0.5" width="65" height="53" fill="none"/>
    </g>
    <line id="Line_133" data-name="Line 133" x2="67" y2="54" transform="translate(72.5 1133.5)" fill="none" stroke="#707070" stroke-width="1"/>
    <line id="Line_134" data-name="Line 134" x1="67" y2="54" transform="translate(72.5 1133.5)" fill="none" stroke="#707070" stroke-width="1"/>
    <g id="Rectangle_47" data-name="Rectangle 47" transform="translate(1048 1133)" fill="#807d7d" stroke="#707070" stroke-width="1">
      <rect width="30" height="28" stroke="none"/>
      <rect x="0.5" y="0.5" width="29" height="27" fill="none"/>
    </g>
    <g id="Rectangle_48" data-name="Rectangle 48" transform="translate(1048 1188)" fill="#807d7d" stroke="#707070" stroke-width="1">
      <rect width="30" height="21" stroke="none"/>
      <rect x="0.5" y="0.5" width="29" height="20" fill="none"/>
    </g>
    <g id="Rectangle_49" data-name="Rectangle 49" transform="translate(1048 1241)" fill="#807d7d" stroke="#707070" stroke-width="1">
      <rect width="30" height="22" stroke="none"/>
      <rect x="0.5" y="0.5" width="29" height="21" fill="none"/>
    </g>
    <g id="Rectangle_50" data-name="Rectangle 50" transform="translate(1048 1299)" fill="#807d7d" stroke="#707070" stroke-width="1">
      <rect width="30" height="21" stroke="none"/>
      <rect x="0.5" y="0.5" width="29" height="20" fill="none"/>
    </g>
    <g id="Rectangle_51" data-name="Rectangle 51" transform="translate(1048 1355)" fill="#807d7d" stroke="#707070" stroke-width="1">
      <rect width="30" height="22" stroke="none"/>
      <rect x="0.5" y="0.5" width="29" height="21" fill="none"/>
    </g>
    <g id="Rectangle_52" data-name="Rectangle 52" transform="translate(1048 1416)" fill="#807d7d" stroke="#707070" stroke-width="1">
      <rect width="30" height="17" stroke="none"/>
      <rect x="0.5" y="0.5" width="29" height="16" fill="none"/>
    </g>
    <line id="Line_135" data-name="Line 135" x2="567" transform="translate(1105.5 1147.5)" fill="none" stroke="#707070" stroke-width="1"/>
    <line id="Line_136" data-name="Line 136" x2="567" transform="translate(1105.5 1198.5)" fill="none" stroke="#707070" stroke-width="1"/>
    <line id="Line_137" data-name="Line 137" y1="4" x2="567" transform="translate(1105.5 1252.5)" fill="none" stroke="#707070" stroke-width="1"/>
    <line id="Line_138" data-name="Line 138" x2="567" transform="translate(1105.5 1309.5)" fill="none" stroke="#707070" stroke-width="1"/>
    <line id="Line_139" data-name="Line 139" x2="567" y2="8" transform="translate(1105.5 1369.5)" fill="none" stroke="#707070" stroke-width="1"/>
    <line id="Line_140" data-name="Line 140" x2="567" transform="translate(1105.5 1424.5)" fill="none" stroke="#707070" stroke-width="1"/>
    <line id="Line_66" data-name="Line 66" x2="1920" y2="4" transform="translate(-11.5 1800)" fill="none" stroke="#707070" stroke-width="1"/>
    <g id="Rectangle_16" data-name="Rectangle 16" transform="translate(72 1828.5)" fill="#1e1919" stroke="#707070" stroke-width="1">
      <rect width="227" height="42" stroke="none"/>
      <rect x="0.5" y="0.5" width="226" height="41" fill="none"/>
    </g>
    <line id="Line_42" data-name="Line 42" x2="174" transform="translate(72.5 1905)" fill="none" stroke="#707070" stroke-width="1"/>
    <line id="Line_43" data-name="Line 43" y1="3" x2="174" transform="translate(72.5 1957)" fill="none" stroke="#707070" stroke-width="1"/>
    <line id="Line_44" data-name="Line 44" y1="2" x2="174" transform="translate(72.5 1931)" fill="none" stroke="#707070" stroke-width="1"/>
    <line id="Line_45" data-name="Line 45" x2="1191" y2="2" transform="translate(72.5 2062)" fill="none" stroke="#707070" stroke-width="1"/>
    <line id="Line_46" data-name="Line 46" x2="430" y2="2" transform="translate(72.5 2093)" fill="none" stroke="#707070" stroke-width="1"/>
    <g id="Ellipse_2" data-name="Ellipse 2" transform="translate(1408 2044.5)" fill="#fff" stroke="#707070" stroke-width="1">
      <ellipse cx="37" cy="32" rx="37" ry="32" stroke="none"/>
      <ellipse cx="37" cy="32" rx="36.5" ry="31.5" fill="none"/>
    </g>
    <g id="Ellipse_3" data-name="Ellipse 3" transform="translate(1561 2044.5)" fill="#fff" stroke="#707070" stroke-width="1">
      <ellipse cx="38" cy="32" rx="38" ry="32" stroke="none"/>
      <ellipse cx="38" cy="32" rx="37.5" ry="31.5" fill="none"/>
    </g>
    <g id="Ellipse_4" data-name="Ellipse 4" transform="translate(1722 2044.5)" fill="#fff" stroke="#707070" stroke-width="1">
      <ellipse cx="37" cy="32" rx="37" ry="32" stroke="none"/>
      <ellipse cx="37" cy="32" rx="36.5" ry="31.5" fill="none"/>
    </g>
    <text id="f" transform="translate(1436.5 2045)" fill="#707070" stroke="#000" stroke-width="1" font-size="45" font-family="SegoeUI, Segoe UI"><tspan x="0" y="49">f</tspan></text>
    <line id="Line_53" data-name="Line 53" y1="34" x2="168" transform="translate(299.5 1871)" fill="none" stroke="#707070" stroke-width="1"/>
    <text id="List_of_partners" data-name="List of partners" transform="translate(476 1860.5)" fill="#707070" font-size="20" font-family="SegoeUI, Segoe UI"><tspan x="0" y="22">List of partners</tspan></text>
    <path id="Path_19" data-name="Path 19" d="M0,0-6.7,8.931,3,15" transform="translate(292.5 1899)" fill="none" stroke="#707070" stroke-width="1"/>
    <g id="Rectangle_54" data-name="Rectangle 54" transform="translate(731 269)" fill="#fff" stroke="#707070" stroke-width="1">
      <rect width="590" height="115" stroke="none"/>
      <rect x="0.5" y="0.5" width="589" height="114" fill="none"/>
    </g>
    <path id="Path_23" data-name="Path 23" d="M6,0,28.941,15.63,0,29" transform="translate(685.5 310.5)" fill="none" stroke="#707070" stroke-width="1"/>
  </g>
</svg>
