<svg xmlns="http://www.w3.org/2000/svg" xmlns:xlink="http://www.w3.org/1999/xlink" width="1920" height="1080" viewBox="0 0 1920 1080">
  <defs>
    <clipPath id="clip-Web_1920_5">
      <rect width="1920" height="1080"/>
    </clipPath>
  </defs>
  <g id="Web_1920_5" data-name="Web 1920 – 5" clip-path="url(#clip-Web_1920_5)">
    <rect width="1920" height="1080" fill="#fff"/>
    <g id="Path_20" data-name="Path 20" transform="translate(189.203 19)" fill="#fff">
      <path d="M 807.2967529296875 1019.231689453125 L 0.5000320076942444 1019.231689453125 L 0.5000320076942444 0.4999697208404541 L 807.2967529296875 0.4999697208404541 L 807.2967529296875 1019.231689453125 Z" stroke="none"/>
      <path d="M 1.00006103515625 1 L 1.00006103515625 1018.731689453125 L 806.7967529296875 1018.731689453125 L 806.7967529296875 1 L 1.00006103515625 1 M 6.103515625e-05 0 L 807.7967529296875 0 L 807.7967529296875 1019.731689453125 L 6.103515625e-05 1019.731689453125 L 6.103515625e-05 0 Z" stroke="none" fill="#707070"/>
    </g>
    <g id="Rectangle_20" data-name="Rectangle 20" transform="translate(288 34)" fill="#6a6161" stroke="#707070" stroke-width="1">
      <rect width="324" height="57" stroke="none"/>
      <rect x="0.5" y="0.5" width="323" height="56" fill="none"/>
    </g>
    <line id="Line_87" data-name="Line 87" y1="5" x2="421" transform="translate(288.5 116.5)" fill="none" stroke="#707070" stroke-width="1"/>
    <line id="Line_88" data-name="Line 88" y1="2" x2="197" transform="translate(288.5 167.5)" fill="none" stroke="#707070" stroke-width="1"/>
    <g id="Rectangle_21" data-name="Rectangle 21" transform="translate(287 276)" fill="#fff" stroke="#707070" stroke-width="1">
      <rect width="508" height="57" stroke="none"/>
      <rect x="0.5" y="0.5" width="507" height="56" fill="none"/>
    </g>
    <g id="Rectangle_22" data-name="Rectangle 22" transform="translate(287 376)" fill="#fff" stroke="#707070" stroke-width="1">
      <rect width="508" height="63" stroke="none"/>
      <rect x="0.5" y="0.5" width="507" height="62" fill="none"/>
    </g>
    <g id="Rectangle_23" data-name="Rectangle 23" transform="translate(287 601)" fill="#fff" stroke="#707070" stroke-width="1">
      <rect width="508" height="65" stroke="none"/>
      <rect x="0.5" y="0.5" width="507" height="64" fill="none"/>
    </g>
    <g id="Rectangle_24" data-name="Rectangle 24" transform="translate(287 738)" fill="#807a7a" stroke="#707070" stroke-width="1">
      <rect width="508" height="59" stroke="none"/>
      <rect x="0.5" y="0.5" width="507" height="58" fill="none"/>
    </g>
    <g id="Rectangle_25" data-name="Rectangle 25" transform="translate(288 831)" fill="#403a3a" stroke="#707070" stroke-width="1">
      <rect width="37" height="41" stroke="none"/>
      <rect x="0.5" y="0.5" width="36" height="40" fill="none"/>
    </g>
    <line id="Line_89" data-name="Line 89" x2="365" transform="translate(386.5 831.5)" fill="none" stroke="#707070" stroke-width="1"/>
    <line id="Line_90" data-name="Line 90" x2="183" transform="translate(386.5 872.5)" fill="none" stroke="#707070" stroke-width="1"/>
    <g id="Rectangle_26" data-name="Rectangle 26" transform="translate(288 921)" fill="#4a4747" stroke="#707070" stroke-width="1">
      <rect width="507" height="41" stroke="none"/>
      <rect x="0.5" y="0.5" width="506" height="40" fill="none"/>
    </g>
    <g id="Rectangle_27" data-name="Rectangle 27" transform="translate(287 195)" fill="#fff" stroke="#707070" stroke-width="1">
      <rect width="508" height="57" stroke="none"/>
      <rect x="0.5" y="0.5" width="507" height="56" fill="none"/>
    </g>
    <g id="Rectangle_28" data-name="Rectangle 28" transform="translate(287 480)" fill="#fff" stroke="#707070" stroke-width="1">
      <rect width="508" height="76" stroke="none"/>
      <rect x="0.5" y="0.5" width="507" height="75" fill="none"/>
    </g>
    <line id="Line_91" data-name="Line 91" y1="102" x2="360" transform="translate(831.5 121.5)" fill="none" stroke="#707070" stroke-width="1"/>
    <line id="Line_92" data-name="Line 92" y1="28" x2="343" transform="translate(817.5 276.5)" fill="none" stroke="#707070" stroke-width="1"/>
    <line id="Line_93" data-name="Line 93" y1="31" x2="374" transform="translate(817.5 376.5)" fill="none" stroke="#707070" stroke-width="1"/>
    <line id="Line_94" data-name="Line 94" y1="38" x2="374" transform="translate(817.5 480.5)" fill="none" stroke="#707070" stroke-width="1"/>
    <line id="Line_95" data-name="Line 95" y1="32" x2="378" transform="translate(831.5 601.5)" fill="none" stroke="#707070" stroke-width="1"/>
    <line id="Line_96" data-name="Line 96" y1="29" x2="378" transform="translate(831.5 738.5)" fill="none" stroke="#707070" stroke-width="1"/>
    <text id="Name" transform="translate(1240.5 63.5)" fill="#707070" stroke="#000" stroke-width="1" font-size="45" font-family="SegoeUI, Segoe UI"><tspan x="0" y="49">Name</tspan></text>
    <text id="Email" transform="translate(1210.5 224.5)" fill="#707070" stroke="#000" stroke-width="1" font-size="45" font-family="SegoeUI, Segoe UI"><tspan x="0" y="49">Email</tspan></text>
    <text id="password" transform="translate(1210.5 352.5)" fill="#707070" stroke="#000" stroke-width="1" font-size="45" font-family="SegoeUI, Segoe UI"><tspan x="0" y="49">password</tspan></text>
    <text id="Confirm_password" data-name="Confirm password" transform="translate(1211.5 500.5)" fill="#707070" stroke="#000" stroke-width="1" font-size="45" font-family="SegoeUI, Segoe UI"><tspan x="0" y="49">Confirm password</tspan></text>
    <text id="Grade_Level" data-name="Grade Level" transform="translate(1241.5 618.5)" fill="#707070" stroke="#000" stroke-width="1" font-size="45" font-family="SegoeUI, Segoe UI"><tspan x="0" y="49">Grade Level</tspan></text>
    <text id="Register" transform="translate(1275.5 738.5)" fill="#707070" stroke="#000" stroke-width="1" font-size="45" font-family="SegoeUI, Segoe UI"><tspan x="0" y="49">Register</tspan></text>
  </g>
</svg>
