<svg xmlns="http://www.w3.org/2000/svg" xmlns:xlink="http://www.w3.org/1999/xlink" width="1920" height="1080" viewBox="0 0 1920 1080">
  <defs>
    <clipPath id="clip-Web_1920_6">
      <rect width="1920" height="1080"/>
    </clipPath>
  </defs>
  <g id="Web_1920_6" data-name="Web 1920 – 6" clip-path="url(#clip-Web_1920_6)">
    <rect width="1920" height="1080" fill="#fff"/>
    <g id="Rectangle_29" data-name="Rectangle 29" transform="translate(579 85)" fill="#5d5454" stroke="#707070" stroke-width="1">
      <rect width="673" height="197" stroke="none"/>
      <rect x="0.5" y="0.5" width="672" height="196" fill="none"/>
    </g>
    <line id="Line_97" data-name="Line 97" y2="617" transform="translate(579.5 282.5)" fill="none" stroke="#707070" stroke-width="1"/>
    <line id="Line_98" data-name="Line 98" y2="617" transform="translate(1252.5 282.5)" fill="none" stroke="#707070" stroke-width="1"/>
    <line id="Line_99" data-name="Line 99" x2="673" transform="translate(579.5 899.5)" fill="none" stroke="#707070" stroke-width="1"/>
    <g id="Rectangle_30" data-name="Rectangle 30" transform="translate(681 349)" fill="#fff" stroke="#707070" stroke-width="1">
      <rect width="467" height="64" stroke="none"/>
      <rect x="0.5" y="0.5" width="466" height="63" fill="none"/>
    </g>
    <g id="Rectangle_31" data-name="Rectangle 31" transform="translate(681 444)" fill="#fff" stroke="#707070" stroke-width="1">
      <rect width="467" height="67" stroke="none"/>
      <rect x="0.5" y="0.5" width="466" height="66" fill="none"/>
    </g>
    <g id="Rectangle_32" data-name="Rectangle 32" transform="translate(915 540)" fill="#5e5a5a" stroke="#707070" stroke-width="1">
      <rect width="233" height="28" stroke="none"/>
      <rect x="0.5" y="0.5" width="232" height="27" fill="none"/>
    </g>
    <line id="Line_100" data-name="Line 100" y1="145" x2="298" transform="translate(1160.5 395.5)" fill="none" stroke="#707070" stroke-width="1"/>
    <path id="Path_21" data-name="Path 21" d="M0,0-1.718,5.44,4,7" transform="translate(1156.5 538.5)" fill="none" stroke="#707070" stroke-width="1"/>
    <text id="Forgot_Password" data-name="Forgot Password" transform="translate(1472.5 381.5)" fill="#707070" stroke="#000" stroke-width="1" font-size="25" font-family="SegoeUI, Segoe UI"><tspan x="0" y="27">Forgot Password</tspan></text>
    <g id="Rectangle_33" data-name="Rectangle 33" transform="translate(681 614)" fill="#fff" stroke="#707070" stroke-width="1">
      <rect width="467" height="63" stroke="none"/>
      <rect x="0.5" y="0.5" width="466" height="62" fill="none"/>
    </g>
    <line id="Line_101" data-name="Line 101" y1="1" x2="191" transform="translate(788.5 808.5)" fill="none" stroke="#707070" stroke-width="1"/>
    <line id="Line_102" data-name="Line 102" x2="138" transform="translate(805.5 832.5)" fill="none" stroke="#707070" stroke-width="1"/>
    <line id="Line_103" data-name="Line 103" y1="133" x2="398" transform="translate(1003.5 683.5)" fill="none" stroke="#707070" stroke-width="1"/>
    <text id="No_account_Sign_up_now" data-name="No account? Sign up now" transform="translate(1433.5 655.5)" fill="#707070" stroke="#000" stroke-width="1" font-size="25" font-family="SegoeUI, Segoe UI"><tspan x="0" y="27">No account? Sign up now</tspan></text>
    <line id="Line_104" data-name="Line 104" y1="208" x2="342" transform="translate(1160.5 141.5)" fill="none" stroke="#707070" stroke-width="1"/>
    <line id="Line_105" data-name="Line 105" y1="199" x2="389" transform="translate(1160.5 258.5)" fill="none" stroke="#707070" stroke-width="1"/>
    <text id="Email" transform="translate(1523.5 102.5)" fill="#707070" stroke="#000" stroke-width="1" font-size="25" font-family="SegoeUI, Segoe UI"><tspan x="0" y="27">Email</tspan></text>
    <text id="Password" transform="translate(1570.5 246.5)" fill="#707070" stroke="#000" stroke-width="1" font-size="25" font-family="SegoeUI, Segoe UI"><tspan x="0" y="27">Password</tspan></text>
    <line id="Line_106" data-name="Line 106" y1="109" x2="278" transform="translate(1173.5 524.5)" fill="none" stroke="#707070" stroke-width="1"/>
    <text id="Sign_In" data-name="Sign In" transform="translate(1483.5 489.5)" fill="#707070" stroke="#000" stroke-width="1" font-size="25" font-family="SegoeUI, Segoe UI"><tspan x="0" y="27">Sign In</tspan></text>
  </g>
</svg>
